<?xml version="1.0" encoding="UTF-8"?>
<svg width="26" height="26" viewBox="0 0 30 30" version="1.1" xmlns="http://www.w3.org/2000/svg" xmlns:xlink="http://www.w3.org/1999/xlink">
    <g id="Page-1" stroke="none" stroke-width="1" fill="none" fill-rule="evenodd">
        <g id="Icon_Space-24px-(5)" fill="#757575">
            <path d="M17.2062,0.52259 C17.6685,0.58567 18.0467,0.90108 18.1938,1.34266 L18.8273,3.16119 C18.9311,3.45916 19.1709,3.68722 19.4638,3.80458 C19.542,3.83589 19.6193,3.86826 19.6956,3.90131 C19.9708,4.02038 20.2839,4.02246 20.5546,3.89347 L22.3332,3.04588 C22.7535,2.85664 23.2368,2.89869 23.615,3.17205 C24.8337,4.0552 25.8843,5.1276 26.7668,6.32617 C27.04,6.70466 27.082,7.18829 26.8929,7.60884 L26.0399,9.4014 C25.9145,9.665 25.9121,9.9695 26.0272,10.2378 C26.0639,10.3234 26.0998,10.4091 26.1344,10.4947 C26.25,10.7803 26.4743,11.0124 26.7647,11.1154 L28.6159,11.7723 C29.0572,11.9195 29.3724,12.298 29.4354,12.7606 C29.5615,13.6017 29.6245,14.2956 29.6665,14.9895 C29.6665,15.6834 29.6035,16.3983 29.4774,17.2184 C29.4144,17.66 29.0992,18.0595 28.6579,18.2067 L26.816,18.8602 C26.5204,18.9651 26.2945,19.2041 26.1781,19.4953 C26.1463,19.5749 26.1134,19.6537 26.0798,19.7315 C25.961,20.0064 25.9589,20.319 26.0876,20.5894 L26.9349,22.3701 C27.124,22.7907 27.082,23.2743 26.8089,23.6528 C25.9263,24.8724 24.8547,25.9237 23.657,26.8069 C23.2788,27.0803 22.7955,27.1223 22.3752,26.9331 L20.5847,26.0798 C20.3208,25.9541 20.0159,25.9517 19.7473,26.067 C19.6621,26.1036 19.5769,26.1394 19.4917,26.174 C19.2062,26.2896 18.9741,26.5141 18.8712,26.8045 L18.2148,28.6573 C18.0677,29.0989 17.6895,29.4143 17.2272,29.4774 C16.4077,29.6036 15.6933,29.6666 14.9999,29.6666 C14.3065,29.6666 13.5921,29.6036 12.7726,29.4774 C12.3103,29.4143 11.9321,29.0989 11.785,28.6573 L11.1319,26.8138 C11.0271,26.5181 10.7882,26.2921 10.497,26.1756 C10.4178,26.1439 10.3395,26.1111 10.2621,26.0776 C9.9869,25.9586 9.6739,25.9565 9.4032,26.0855 L7.62455,26.9331 C7.2043,27.1223 6.72102,27.0803 6.34279,26.8069 C5.12408,25.9237 4.07346,24.8513 3.19094,23.6528 C2.91778,23.2743 2.87575,22.7907 3.06486,22.3701 L3.91787,20.5775 C4.0433,20.3139 4.04608,20.0092 3.93524,19.7391 C3.89615,19.6439 3.85788,19.5486 3.82012,19.4534 C3.71292,19.183 3.49559,18.9708 3.22144,18.8736 L1.34185,18.2067 C0.90059,18.0595 0.5854,17.681 0.52236,17.2184 C0.39629,16.3773 0.33325,15.6834 0.33325,14.9895 C0.33325,14.2956 0.39629,13.6017 0.50135,12.7816 C0.56439,12.34 0.87957,11.9405 1.32083,11.7933 L3.16281,11.1398 C3.45842,11.0349 3.68428,10.7959 3.80067,10.5047 C3.83249,10.425 3.8654,10.3463 3.89902,10.2685 C4.01782,9.9936 4.01988,9.681 3.89121,9.4106 L3.04385,7.62987 C2.85474,7.20932 2.89676,6.72569 3.16992,6.34719 C4.07346,5.1276 5.12408,4.07623 6.32178,3.19308 C6.7,2.91972 7.18329,2.87766 7.60354,3.06691 L9.3941,3.92016 C9.6579,4.0459 9.9629,4.04825 10.2314,3.93293 C10.3166,3.89634 10.4019,3.86054 10.4871,3.82602 C10.7726,3.71033 11.0047,3.48591 11.1075,3.1955 L11.764,1.34266 C11.9111,0.90108 12.2893,0.58567 12.7516,0.52259 C14.3905,0.27026 15.5882,0.27026 17.2062,0.52259 Z M14.9999,8.33329 C11.318,8.33329 8.33321,11.3181 8.33321,15 C8.33321,18.6819 11.318,21.6666 14.9999,21.6666 C18.6818,21.6666 21.6665,18.6819 21.6665,15 C21.6665,11.3181 18.6818,8.33329 14.9999,8.33329 Z" id="Shape"></path>
        </g>
    </g>
</svg>
