<svg width="24" height="24" viewBox="0 0 24 24" fill="none" xmlns="http://www.w3.org/2000/svg">
<path d="M6.16067 6.8216C6.94524 4.25389 9.3151 2.5 12 2.5C14.6849 2.5 17.0548 4.25389 17.8393 6.8216L19.6263 12.6698C20.9681 17.0613 17.6831 21.5 13.0912 21.5H10.9088C6.31685 21.5 3.03186 17.0613 4.3737 12.6698L6.16067 6.8216Z" stroke="#757575"/>
<path d="M5.00005 11C4.00005 11 2.10005 10.6 2.50005 9.00002C3.00005 7.00002 5.5 3.00002 8 4.50002" stroke="#757575"/>
<path d="M18.9999 11C19.9999 11 21.8999 10.6 21.4999 9.00002C20.9999 7.00002 18.5 3.00002 16 4.50002" stroke="#757575"/>
<path d="M12 21V17" stroke="#757575"/>
<path d="M9.67082 14.2236C9.5046 13.8912 9.74634 13.5 10.118 13.5H13.882C14.2537 13.5 14.4954 13.8912 14.3292 14.2236L13.3292 16.2236C13.2445 16.393 13.0714 16.5 12.882 16.5H11.118C10.9286 16.5 10.7555 16.393 10.6708 16.2236L9.67082 14.2236Z" stroke="#757575"/>
<circle cx="10" cy="10" r="1" fill="#757575"/>
<circle cx="14" cy="10" r="1" fill="#757575"/>
</svg>
