<svg width="15" height="18" viewBox="0 0 15 18" fill="none" xmlns="http://www.w3.org/2000/svg">
<path d="M14.4745 8.98865L14.4745 8.98866L14.475 8.98537C14.5842 8.27233 14.3308 7.55468 13.8128 7.08074L13.8033 7.07203L13.7934 7.06382C13.4391 6.77176 12.9989 6.59695 12.5346 6.59695H7.99953C7.90582 6.59695 7.82559 6.51974 7.82559 6.41982V3.00595C7.82559 2.11887 7.62552 1.31107 7.01755 0.867612C6.49069 0.479039 5.81929 0.473377 5.40872 0.520077L4.96522 0.570522V1.01687V3.75361C4.96522 5.02392 4.35944 6.1504 3.15228 7.0149L3.15073 7.01601C2.38841 7.56635 1.62151 7.82531 1.40069 7.89479H1.38921L1.31192 7.92067L1.2698 7.93478L0.928589 8.04905V8.40889V15.6669C0.928589 15.7408 0.944804 15.815 0.952929 15.8479C1.11401 16.7882 1.94677 17.5 2.90284 17.5H10.955C11.9712 17.5 12.6162 17.1582 12.9956 16.6689C13.3276 16.2406 13.4001 15.7656 13.4264 15.5371C13.4281 15.5299 13.4298 15.5226 13.4313 15.515C13.435 15.4963 13.4374 15.4786 13.439 15.4631L14.4745 8.98865ZM1.2608 7.94422C1.2616 7.94382 1.26299 7.94313 1.26453 7.94238L1.26235 7.94344L1.2608 7.94422Z" stroke="#757575"/>
</svg>