<?xml version="1.0" encoding="UTF-8"?>
<svg width="140px" height="48px" viewBox="0 0 140 48" version="1.1" xmlns="http://www.w3.org/2000/svg" xmlns:xlink="http://www.w3.org/1999/xlink">
    <title>E98AC7E9-C90B-4679-B298-4E6F37F9D517</title>
    <defs>
        <filter x="-6.2%" y="-22.2%" width="112.5%" height="144.4%" filterUnits="objectBoundingBox" id="filter-1">
            <feOffset dx="0" dy="0" in="SourceAlpha" result="shadowOffsetOuter1"></feOffset>
            <feGaussianBlur stdDeviation="2" in="shadowOffsetOuter1" result="shadowBlurOuter1"></feGaussianBlur>
            <feColorMatrix values="0 0 0 0 0.0862745098   0 0 0 0 0.0862745098   0 0 0 0 0.11372549  0 0 0 0.1 0" type="matrix" in="shadowBlurOuter1" result="shadowMatrixOuter1"></feColorMatrix>
            <feMerge>
                <feMergeNode in="shadowMatrixOuter1"></feMergeNode>
                <feMergeNode in="SourceGraphic"></feMergeNode>
            </feMerge>
        </filter>
    </defs>
    <g id="Page-1" stroke="none" stroke-width="1" fill="none" fill-rule="evenodd">
        <g id="HMS_Partner_1" transform="translate(-71.000000, -21.000000)" fill="#FDFDFD">
            <g id="Group-10" transform="translate(77.000000, 25.000000)">
                <g id="mt_logo_blue" filter="url(#filter-1)" transform="translate(0.000000, 2.000000)">
                    <path d="M17.1276609,26.5437691 L14.2473237,26.5437691 L14.2473237,19.6467244 C14.293534,18.9775018 14.082025,18.3159485 13.6561485,17.7976596 C13.286856,17.3884665 12.758899,17.1586077 12.2077691,17.1670726 C11.3221445,17.1528978 10.4637152,17.4730497 9.80365636,18.0636884 C9.92918994,18.5807362 9.98986881,19.1114006 9.98429324,19.6434401 L9.98429324,26.5404848 L7.10395601,26.5404848 L7.10395601,19.6434401 C7.15016633,18.9742175 6.93865727,18.3126642 6.51278076,17.7943753 C6.1490839,17.3870296 5.62686377,17.1570611 5.08082291,17.1637883 C4.68232636,17.1560795 4.28686303,17.2345 3.92146254,17.3936898 C3.53848022,17.5822549 3.18722384,17.8293532 2.88033723,18.1260903 L2.88033723,26.5437691 L0,26.5437691 L0,14.9764399 L2.88033723,14.9764399 L2.88033723,15.8369283 C3.25056296,15.483213 3.68099972,15.1984796 4.15136403,14.9961457 C4.62000999,14.783773 5.12793602,14.671895 5.6424394,14.667715 C6.22685674,14.6735511 6.80337477,14.8034075 7.3338575,15.0486946 C7.90863369,15.3057013 8.42074316,15.6844606 8.8347858,16.1587904 C9.36588128,15.6675909 9.98408768,15.2799587 10.6575762,15.0158515 C11.3070404,14.7868701 11.9921617,14.6756491 12.6807093,14.6874208 C13.2618912,14.6841154 13.8397642,14.7750666 14.3918332,14.956734 C14.9227838,15.1305116 15.4061986,15.4250574 15.8040852,15.8172225 C16.2269032,16.2442369 16.554819,16.755696 16.7663872,17.3181507 C17.0230868,18.019254 17.1456414,18.7623806 17.1276609,19.5087835 L17.1276609,26.5437691 Z" id="Path" fill-rule="nonzero"></path>
                    <path d="M29.8116545,14.956734 L24.6093123,28.7048431 C24.3291496,29.5770481 23.8006965,30.3486125 23.0886781,30.9250346 C22.1742422,31.5617207 21.0267533,31.7657721 19.9488806,31.4833668 L18.9865787,28.8033723 C19.211094,28.9091225 19.4453891,28.9927208 19.6861361,29.0529796 C19.9081845,29.1106919 20.1365648,29.1404807 20.3659876,29.1416559 C20.7995161,29.1475885 21.2272023,29.0412326 21.6074557,28.832931 C22.025821,28.5685479 22.3321492,28.1593309 22.4679441,27.6834236 L22.8686296,26.5240632 L18.3921191,14.956734 L21.5319166,14.956734 L24.1922053,22.3989737 L26.6915629,14.956734 L29.8116545,14.956734 Z" id="Path" fill-rule="nonzero"></path>
                    <path d="M37.5560504,26.2744559 C37.2414359,26.4706302 36.896187,26.6127262 36.5346309,26.6948472 C36.1551444,26.7877266 35.7659567,26.8351347 35.3752706,26.8360724 C34.7915908,26.851349 34.2095826,26.7669356 33.6542937,26.5864651 C33.2164082,26.4401539 32.8283774,26.1738805 32.534345,25.8179372 C32.2354653,25.4309622 32.0267609,24.9821354 31.9234639,24.5042144 C31.7878267,23.8863216 31.7239077,23.2548465 31.7329741,22.6223065 L31.7329741,17.5579052 L30.2156243,17.5579052 L30.2156243,16.2441824 C31.1136208,15.8843486 31.8985273,15.2899975 32.4883647,14.5232055 C33.1154446,13.6472207 33.5231656,12.6335497 33.6772838,11.5673292 L34.6165956,11.5673292 L34.6165956,14.956734 L37.5363446,14.956734 L37.5363446,17.5579052 L34.6165956,17.5579052 L34.6165956,22.8127963 C34.6088313,23.0574047 34.6466994,23.3013193 34.7282621,23.5320596 C34.7888196,23.699362 34.8878162,23.8501069 35.0172811,23.9721567 C35.1345734,24.0772637 35.2753531,24.1527216 35.4278195,24.1922053 C35.5875598,24.2340566 35.75205,24.2550318 35.9171812,24.2546071 C36.1947429,24.2470203 36.4703975,24.2062235 36.738258,24.1330877 C37.038767,24.0634424 37.3195254,23.9264323 37.5593347,23.7324023 L37.5560504,26.2744559 Z" id="Path" fill-rule="nonzero"></path>
                    <path d="M51.2023459,20.7601045 C51.2100898,21.5880992 51.046848,22.4087805 50.7228371,23.1707858 C50.4172728,23.8923352 49.9706229,24.5455607 49.4091143,25.0921054 C48.2296603,26.2196793 46.6595705,26.8470091 45.0278488,26.8427044 C43.3994977,26.8499892 41.8333268,26.21786 40.6662891,25.0822525 C39.5042528,23.9457629 38.8545235,22.385464 38.8664889,20.7601045 C38.858528,19.9458864 39.0219002,19.1390965 39.3459977,18.3921191 C39.6622762,17.6666133 40.1136814,17.007896 40.676142,16.4510937 C41.8335623,15.3118523 43.3939683,14.6756504 45.0179959,14.6807878 C46.6484133,14.6734894 48.2184434,15.2972645 49.3992614,16.4215349 C49.9620599,16.9708005 50.4088025,17.6275121 50.7129842,18.3527074 C51.0392125,19.1132038 51.2057741,19.9325975 51.2023459,20.7601045 L51.2023459,20.7601045 Z M48.3220087,20.7601045 C48.3300133,19.8328609 47.9834226,18.9375995 47.3531381,18.2574625 C47.0580548,17.9411215 46.7030409,17.6865833 46.3087285,17.5086405 C45.4960161,17.1494262 44.5695344,17.1494262 43.756822,17.5086405 C43.3569008,17.6851614 42.9962428,17.9397435 42.6959908,18.2574625 C42.3959811,18.5846312 42.1588349,18.9642879 41.9964334,19.3774112 C41.6505007,20.2644844 41.6505007,21.249156 41.9964334,22.1362291 C42.158117,22.5516805 42.3952974,22.9336189 42.6959908,23.2627464 C42.9919218,23.5795746 43.3481099,23.8341542 43.7436848,24.0115684 C44.556224,24.3716021 45.4830521,24.3716021 46.2955913,24.0115684 C46.6912102,23.834231 47.0474127,23.5796412 47.3432852,23.2627464 C47.9735697,22.5826094 48.3201604,21.6873481 48.3121558,20.7601045 L48.3220087,20.7601045 Z" id="Shape" fill-rule="nonzero"></path>
                    <path d="M63.2458997,26.5437691 L60.3655624,26.5437691 L60.3655624,25.6602905 C60.1705936,25.8542645 59.9495074,26.0200792 59.708701,26.1529365 C59.4585937,26.2938726 59.1971254,26.4136207 58.927036,26.510926 C58.6536858,26.6109009 58.3724417,26.6878035 58.0862534,26.7408275 C57.8189441,26.7930736 57.5473865,26.8205592 57.2750296,26.8229757 C56.6995712,26.8252207 56.1278146,26.7308531 55.5836115,26.5437691 C55.0502862,26.3625623 54.5619985,26.0691417 54.1516536,25.6832806 C53.7165039,25.2617964 53.3800275,24.7492307 53.1663615,24.1823523 C52.9067819,23.4864934 52.7830285,22.7473181 52.8018034,22.0048568 L52.8018034,14.9764399 L55.6821407,14.9764399 L55.6821407,21.8734845 C55.6746276,22.2458387 55.7393158,22.6161227 55.8726305,22.9638745 C55.9842045,23.2556382 56.1540654,23.5216046 56.3718451,23.7455395 C56.5751222,23.9495216 56.8206369,24.1064717 57.0911084,24.2053425 C57.3637233,24.3043696 57.6517031,24.3544047 57.9417439,24.3531363 C58.8436906,24.3662868 59.7140852,24.0214358 60.3622781,23.3941187 L60.3622781,14.9764399 L63.2426153,14.9764399 L63.2458997,26.5437691 Z" id="Path" fill-rule="nonzero"></path>
                    <path d="M73.9494561,16.1784962 L72.4091162,18.6187363 C72.1316143,18.3143539 71.8197058,18.043225 71.4796573,17.8107968 C71.1803614,17.5901175 70.8201555,17.4673722 70.4483849,17.4593759 C70.2383753,17.4649244 70.0312279,17.5094722 69.8375038,17.5907482 C69.6020021,17.6877493 69.3902543,17.8345163 69.2167698,18.0209924 C69.0043865,18.2509984 68.8382455,18.519723 68.727408,18.8125104 C68.5828038,19.199702 68.5147636,19.6112897 68.5270653,20.0244197 L68.5270653,26.5437691 L65.6467281,26.5437691 L65.6467281,14.9764399 L68.5270653,14.9764399 L68.5270653,16.2179079 C68.831276,15.7658905 69.2219534,15.3785617 69.6765727,15.0782534 C70.0984713,14.8104866 70.5891672,14.671266 71.0888247,14.6775679 C71.6142066,14.6818713 72.1293439,14.8233925 72.5831844,15.0881063 C73.0913943,15.3799959 73.5521151,15.7476866 73.9494561,16.1784962 L73.9494561,16.1784962 Z" id="Path" fill-rule="nonzero"></path>
                    <polygon id="Path" fill-rule="nonzero" points="88.4496715 14.9764399 84.1078176 26.5634749 81.2668921 26.5634749 76.9053324 14.9764399 80.0648357 14.9764399 82.6922813 22.7405416 85.3197269 14.9764399"></polygon>
                    <circle id="Oval" fill-rule="nonzero" cx="75.2763162" cy="24.9837233" r="1.5501929"></circle>
                    <path d="M100.273177,26.2744559 L100.273177,19.4989306 C100.289376,18.7541329 100.15996,18.0133406 99.892197,17.3181507 C99.668933,16.7498307 99.323615,16.2374595 98.8806305,15.8172225 C98.4659769,15.4337463 97.9760929,15.1407106 97.442104,14.956734 C96.8978704,14.7697709 96.3261343,14.6754066 95.7506859,14.6775316 C95.4719005,14.6787592 95.193793,14.7051409 94.9197562,14.7563913 C94.6336123,14.8096088 94.3523842,14.8865071 94.0789737,14.9862928 C93.8050279,15.0858703 93.5402027,15.2089426 93.2874557,15.3541352 C93.0547123,15.4864823 92.839543,15.6475834 92.6470158,15.833644 L92.617457,14.9764399 L89.7371198,14.9764399 L89.7371198,26.5437691 L92.617457,26.5437691 L92.617457,18.1195216 C92.9499856,17.7957499 93.3473597,17.5461318 93.783386,17.3871212 C94.2047353,17.2352117 94.6492119,17.1574283 95.0971088,17.1572197 C95.3884132,17.1570297 95.6774726,17.208171 95.9510286,17.3082978 C96.2251323,17.4076358 96.474842,17.5644042 96.6834291,17.7681008 C96.9143064,17.9878922 97.095688,18.2543665 97.2154868,18.5497659 C97.3486412,18.8975619 97.4133239,19.2678143 97.4059766,19.6401558 L97.4059766,26.5372005 C97.4059766,26.5372005 98.2566121,26.1332307 100.273177,26.2744559 Z" id="Path" fill-rule="nonzero"></path>
                    <g id="Group-20" transform="translate(88.923592, 0.013139)">
                        <path d="M13.5467863,14.0666855 C13.6223253,13.836784 13.6912958,13.6003139 13.7799721,13.3704124 C14.2958148,11.9796711 14.9366885,10.6385632 15.694723,9.36355787 C16.2070749,8.52277528 16.732564,7.68199269 17.320455,6.89047471 C18.113837,5.78113394 19.0540604,4.78456336 20.1154002,3.92802981 C20.5784875,3.57004035 21.0579963,3.23175673 21.5309365,2.88362018 C21.5751839,2.85058335 21.5998646,2.79751988 21.5966227,2.74239498 C21.5303997,2.76152459 21.4665102,2.78796162 21.4061329,2.82121835 C20.5390758,3.43866807 19.6523129,4.02327471 18.818099,4.68342041 C17.3939541,5.79596404 16.086643,7.05045451 14.9163423,8.42753038 C14.2167849,9.25846005 13.5796293,10.1452229 12.9457581,11.0352701 C12.6491844,11.5029351 12.3783732,11.9864483 12.1345343,12.4836495 C10.2559107,10.6871336 8.04885636,10.3619872 5.54949874,11.1206621 C6.90646547,7.37469444 9.5623256,4.23987049 13.0344344,2.28587631 C18.8279076,-1.07946039 26.0626707,-0.703226943 31.4758181,3.24489395 C36.4515432,6.85763164 38.8589402,12.9730113 38.3728628,18.2246181 C36.3825727,16.9108953 34.2970378,16.6284449 32.0702777,17.6695702 C32.1175322,16.0779425 31.9440031,14.4874438 31.5546415,12.9434525 C31.2143317,11.3899427 30.7362151,9.86986137 30.1259679,8.40125592 C29.5365793,6.96552609 28.8348451,5.57853019 28.0272958,4.2531762 L27.9353352,4.3024408 C28.1126877,4.6308715 28.2966089,4.97900804 28.4641086,5.32714458 C29.1275476,6.76062017 29.5884782,8.27936988 29.8336646,9.83978238 C30.0979984,11.3600724 30.2625654,12.8960305 30.3263107,14.4378122 C30.3803963,15.5821764 30.3265144,16.7290912 30.1653796,17.8633444 C30.1489581,17.9815794 30.1358208,18.0998145 30.1193993,18.2508926 C28.1164632,15.9617129 25.4571992,14.3448254 22.5030914,13.6200197 C19.557258,12.8792175 16.4559636,13.0498574 13.6091881,14.1093815 L13.5467863,14.0666855 Z" id="Path"></path>
                        <path d="M20.7098598,22.4942172 L20.7098598,22.4942172 C21.2441071,20.1689279 21.77507,17.8436385 22.3027487,15.5183492 C22.3239109,15.4011148 22.2913639,15.2805703 22.2140724,15.1899185 C21.8321389,14.8484719 21.3187729,14.6933801 20.8116733,14.7662429 C20.6808008,14.7711734 20.5753451,14.875204 20.5686346,15.0059973 C20.4930955,15.3869769 20.4175565,15.7712408 20.3321645,16.1489361 C19.8438975,18.2859252 19.353441,20.4207247 18.860795,22.5533347 L18.860795,22.5533347 C18.3309268,24.8808136 17.8010586,27.2115768 17.2711904,29.5456243 C17.2490539,29.6628982 17.2817134,29.7838593 17.3598667,29.874055 C17.7375164,30.2191498 18.2486946,30.3791185 18.7556971,30.3108678 C18.8860354,30.3076154 18.9919144,30.204598 18.9987359,30.0743977 C19.0742749,29.6934181 19.149814,29.3091542 19.235206,28.9281746 C19.7234729,26.7736692 20.2150242,24.6290167 20.7098598,22.4942172 Z" id="Path"></path>
                        <path d="M30.9536133,33.6148807 C30.9536133,33.6148807 17.0938378,22.8850497 0.156666669,32.7872353 C0.156666669,32.7872353 -0.309704924,33.1912051 0.366862316,33.2141952 C0.366862316,33.2141952 14.8178131,25.9460239 30.7532706,34.025419 C30.7532706,34.025419 31.2426323,34.0845366 30.9536133,33.6148807 Z" id="Path"></path>
                    </g>
                </g>
            </g>
        </g>
    </g>
</svg>