<svg width="32" height="32" viewBox="0 0 32 32" fill="none" xmlns="http://www.w3.org/2000/svg">
<path d="M4.66346 19.3307C2.81991 17.4871 2.8221 14.4975 4.66835 12.6566C6.50981 10.8206 9.49002 10.8217 11.3301 12.6591C13.1731 14.4994 13.1753 17.4852 11.335 19.3282C9.49378 21.1721 6.50604 21.1732 4.66346 19.3307Z" fill="white"/>
<path d="M20.6656 19.3263C18.8253 17.4833 18.8275 14.4974 20.6705 12.6571C22.5106 10.8197 25.4908 10.8186 27.3323 12.6547C29.1785 14.4955 29.1807 17.4852 27.3372 19.3287C25.4946 21.1713 22.5068 21.1702 20.6656 19.3263Z" fill="white"/>
<path d="M12.6667 20.6663C14.5076 18.8254 17.4924 18.8254 19.3333 20.6663C21.1743 22.5073 21.1743 25.4921 19.3333 27.333C17.4924 29.174 14.5076 29.174 12.6667 27.333C10.8257 25.4921 10.8257 22.5073 12.6667 20.6663Z" fill="white"/>
<path d="M12.6593 4.66503C14.5027 2.81616 17.4973 2.81616 19.3407 4.66503C21.1784 6.50813 21.1762 9.49131 19.3358 11.3317C17.4935 13.174 14.5065 13.174 12.6642 11.3317C10.8238 9.49131 10.8216 6.50813 12.6593 4.66503Z" fill="white"/>
</svg>
