<svg width="96" height="92" viewBox="0 0 96 92" fill="none" xmlns="http://www.w3.org/2000/svg">
<path d="M85.3263 32.6151L95.4505 22.4908C95.868 22.074 96.0643 21.4844 95.9808 20.9007C95.898 20.317 95.5443 19.8057 95.0272 19.5216L82.8558 12.8382C81.9483 12.3402 80.8087 12.672 80.3099 13.5794C79.8119 14.4876 80.1429 15.6273 81.0511 16.1253L91.0326 21.606L82.3438 30.294L51.0936 13.1341L59.7816 4.44612L81.0511 16.1253C81.9586 16.6234 79.8119 14.4876 80.3099 13.5794C80.8087 12.672 83.764 13.3363 82.8558 12.8382L60.3529 0.481522C59.6219 0.0801548 58.7137 0.209793 58.1249 0.799393L47.9998 10.9244L37.8748 0.799393C37.2852 0.209793 36.377 0.0808872 35.6468 0.481522L0.972501 19.5216C0.455411 19.8057 0.101651 20.3162 0.0188876 20.9007C-0.0646084 21.4844 0.131681 22.074 0.549161 22.4908L10.6734 32.6151L0.549161 42.7386C0.131681 43.1561 -0.0646084 43.7449 0.0188876 44.3294C0.101651 44.9132 0.455411 45.4244 0.972501 45.7078L11.4505 51.4617V70.6937C11.4505 71.3785 11.8233 72.0084 12.4232 72.338L47.0975 91.3773C47.3788 91.5318 47.6893 91.6087 47.9998 91.6087C48.3104 91.6087 48.6209 91.5318 48.9022 91.3773L83.5765 72.338C84.1764 72.0084 84.5492 71.3785 84.5492 70.6937V51.4617L95.0272 45.7086C95.5443 45.4244 95.898 44.9132 95.9808 44.3294C96.0643 43.7457 95.868 43.1561 95.4505 42.7393L85.3263 32.6151ZM47.9998 49.515L17.2213 32.6143L47.9998 15.713L78.7784 32.6143L47.9998 49.515ZM36.2188 4.44612L44.9061 13.1341L13.6559 30.294L4.96786 21.606L36.2188 4.44612ZM13.6573 34.9354L44.9076 52.0953L36.2188 60.784L4.96786 43.6241L13.6573 34.9354ZM80.7992 69.5848L49.8749 86.5652V55C49.8749 53.9644 49.0355 54.3057 47.9998 54.3057C46.9642 54.3057 46.1248 53.9644 46.1248 55V86.5652L15.2005 69.5848V53.5213L35.6468 64.7486C35.9303 64.9039 36.2408 64.98 36.5484 64.98C37.034 64.98 37.5145 64.7911 37.8748 64.4307L47.9998 54.3057L58.1249 64.4307C58.4852 64.7918 58.9657 64.98 59.4513 64.98C59.7589 64.98 60.0694 64.9039 60.3529 64.7486L80.7992 53.5213V69.5848ZM59.7816 60.784L51.0929 52.0945L82.3431 34.9354L91.0326 43.6234L59.7816 60.784Z" fill="#4BBEED"/>
</svg>
