<svg width="751" height="443" viewBox="0 0 751 443" fill="none" xmlns="http://www.w3.org/2000/svg">
<g clip-path="url(#clip0)">
<path opacity="0.5" d="M203.007 443.347C282.238 443.347 346.467 439.196 346.467 434.077C346.467 428.957 282.238 424.807 203.007 424.807C123.776 424.807 59.5469 428.957 59.5469 434.077C59.5469 439.196 123.776 443.347 203.007 443.347Z" fill="#72BDB9"/>
<g style="mix-blend-mode:multiply" opacity="0.5">
<path d="M203.007 441.767C268.729 441.767 322.007 438.324 322.007 434.077C322.007 429.83 268.729 426.387 203.007 426.387C137.285 426.387 84.0068 429.83 84.0068 434.077C84.0068 438.324 137.285 441.767 203.007 441.767Z" fill="#72BDB9"/>
</g>
<g style="mix-blend-mode:multiply" opacity="0.13">
<path d="M103.427 434.007L352.427 436.297C418.287 436.907 472.807 384.747 474.507 318.907C475.947 263.587 460.167 203.467 395.387 173.907C349.867 153.027 288.167 163.367 247.677 190.137C237.947 196.577 228.897 204.137 218.537 209.467C194.417 221.967 174.727 210.877 150.837 205.467C100.337 194.097 48.2968 206.907 18.7468 252.157C-26.6432 321.667 13.7868 433.187 103.427 434.007Z" fill="#B2DFDB"/>
</g>
<g style="mix-blend-mode:multiply" opacity="0.32">
<path d="M122.506 433.006L302.066 434.666C349.546 435.106 388.846 397.506 390.066 350.046C391.066 310.166 379.716 266.836 333.066 245.486C300.227 230.486 255.756 237.926 226.566 257.226C219.566 261.866 213.026 267.286 205.566 271.156C188.176 280.156 173.986 272.156 156.766 268.296C120.366 260.096 82.8565 269.296 61.5565 301.956C28.7565 352.056 57.8965 432.416 122.506 433.006Z" fill="#B2DFDB"/>
</g>
<path d="M303.067 251.667C303.377 250.877 339.337 230.667 340.267 230.267C348.267 226.697 354.887 221.407 361.457 215.737C374.797 204.197 380.327 190.337 384.457 173.287C392.677 139.507 391.117 102.507 408.767 71.5169C441.877 13.3369 549.927 -19.0631 609.317 12.0668C627.847 21.7668 642.387 37.8769 653.317 55.6869C664.567 73.9769 671.427 94.3768 680.857 113.397C690.757 133.397 700.857 153.267 709.947 173.617C729.047 216.237 756.767 266.527 749.947 314.267C744.067 355.957 729.277 395.887 688.067 414.087C656.917 427.847 623.067 422.167 590.537 418.467C554.957 414.417 523.537 433.257 488.537 434.797C458.537 436.107 429.087 420.997 410.467 397.797C400.95 385.863 394.342 371.877 391.167 356.947C387.077 337.947 391.167 317.437 383.087 299.147C373.977 278.587 335.407 277.957 312.357 281.787C306.947 282.667 302.977 251.827 303.067 251.667Z" fill="#0A293F"/>
<path d="M328.317 363.737C328.317 363.737 324.617 381.017 314.547 386.417C304.477 391.817 310.057 402.717 298.547 406.257C287.037 409.797 286.477 403.437 279.627 409.257C272.777 415.077 269.357 417.427 261.427 415.207C253.497 412.987 249.377 408.417 243.337 413.767C237.297 419.117 235.717 428.667 225.607 424.567C215.497 420.467 209.607 417.327 206.077 424.227C202.547 431.127 185.777 413.317 196.757 395.227C207.737 377.137 223.417 371.647 232.297 376.537C241.177 381.427 247.967 387.057 252.937 379.537C257.907 372.017 269.217 372.897 273.147 377.287C277.077 381.677 280.627 382.287 284.977 376.457C289.327 370.627 290.147 361.577 300.197 366.167C310.247 370.757 321.267 374.977 328.317 363.737Z" fill="#7C9931"/>
<path d="M316.547 376.667C308.485 382.676 299.72 387.68 290.447 391.567C281.201 395.557 271.638 398.768 261.857 401.167C259.417 401.767 256.937 402.227 254.487 402.757L250.787 403.537L247.067 404.117L239.607 405.227L232.097 405.917L228.347 406.257C227.097 406.347 225.837 406.357 224.577 406.407L217.057 406.607H215.177L213.287 406.537L209.527 406.387C207.027 406.307 204.527 406.187 202.027 406.057C207.027 405.767 212.027 405.817 217.027 405.447L224.487 404.867C225.737 404.757 226.977 404.707 228.217 404.567L231.927 404.097L239.347 403.197L246.707 401.937L250.387 401.317L254.037 400.527C256.467 399.977 258.917 399.527 261.327 398.897L268.547 397.017C270.957 396.397 273.297 395.557 275.687 394.857C278.077 394.157 280.427 393.327 282.767 392.497L286.287 391.247L289.767 389.887L293.237 388.507L296.657 387.007C298.967 386.057 301.197 384.947 303.447 383.887C307.951 381.738 312.325 379.327 316.547 376.667Z" fill="#5D7325"/>
<g style="mix-blend-mode:multiply" opacity="0.35">
<path d="M206.067 424.227C209.577 417.327 215.497 420.437 225.597 424.567C235.697 428.697 237.307 419.147 243.337 413.807C249.367 408.467 253.487 413.037 261.427 415.247C265.377 416.357 268.207 416.337 270.907 415.317C259.587 414.037 235.787 407.597 214.907 377.487C208.637 380.567 202.137 386.397 196.777 395.237C185.777 413.317 202.567 431.117 206.067 424.227Z" fill="#7C9931"/>
</g>
<path d="M331.007 304.557C331.007 304.557 312.607 293.557 302.067 299.557C291.527 305.557 289.067 311.827 283.067 308.177C277.067 304.527 271.777 302.097 264.067 307.787C256.997 313.037 259.117 324.557 247.627 323.337C244.407 322.997 241.107 322.067 237.997 322.977C229.897 325.317 229.367 335.777 222.527 339.657C213.947 344.517 206.867 349.847 205.327 360.437C204.927 363.177 204.967 365.967 204.387 368.677C203.807 371.387 202.477 374.107 200.087 375.497C198.207 376.577 195.947 376.707 193.847 377.207C184.617 379.417 177.177 390.507 180.507 399.887C183.367 407.957 194.387 418.887 194.387 418.887C194.387 418.887 207.557 427.977 214.667 419.687C217.767 416.067 218.497 409.327 222.117 406.687C223.891 405.566 225.808 404.691 227.817 404.087C231.58 402.674 235.141 400.771 238.407 398.427C241.167 396.427 243.827 393.987 244.897 390.757C245.897 387.827 245.437 384.637 245.897 381.577C246.207 379.115 247.113 376.766 248.537 374.734C249.96 372.702 251.859 371.048 254.067 369.917C257.267 368.417 260.807 367.557 263.677 365.487C267.537 362.707 269.677 357.997 270.317 353.277C270.767 349.817 270.637 345.947 272.957 343.357C276.797 339.057 283.317 341.357 288.237 340.167C294.927 338.587 298.887 331.647 297.857 324.917C297.676 324.24 297.659 323.531 297.807 322.847C298.297 321.377 300.187 321.047 301.737 321.007C305.327 320.897 311.647 322.487 314.877 320.647C326.307 314.137 328.847 308.577 331.007 304.557Z" fill="#A4C555"/>
<path d="M318.837 307.537C317.109 307.711 315.396 308.002 313.707 308.407C312.02 308.787 310.354 309.227 308.707 309.727C305.4 310.739 302.152 311.935 298.977 313.307C292.637 316.054 286.516 319.28 280.667 322.957C268.937 330.247 258.327 339.197 247.917 348.337C242.71 352.897 237.644 357.61 232.717 362.477C227.717 367.287 223.007 372.337 218.397 377.477C209.152 387.847 200.758 398.947 193.297 410.667C196.557 404.498 200.152 398.512 204.067 392.737C208.007 386.977 212.227 381.42 216.727 376.067C225.731 365.407 235.539 355.454 246.067 346.297C248.667 343.967 251.367 341.767 254.017 339.507C256.667 337.247 259.397 335.077 262.187 332.957C267.709 328.66 273.508 324.731 279.547 321.197C285.572 317.631 291.896 314.596 298.447 312.127C301.722 310.925 305.06 309.903 308.447 309.067C311.845 308.185 315.329 307.672 318.837 307.537Z" fill="#7C9931"/>
<g style="mix-blend-mode:multiply" opacity="0.39">
<path d="M200.117 375.507C202.507 374.117 203.837 371.397 204.417 368.687C204.997 365.977 204.957 363.187 205.357 360.447C206.897 349.857 213.977 344.527 222.557 339.667C223.02 339.406 223.462 339.108 223.877 338.777C211.167 356.017 211.527 380.267 241.487 395.887C240.531 396.794 239.511 397.633 238.437 398.397C235.171 400.741 231.61 402.644 227.847 404.057C225.838 404.661 223.921 405.536 222.147 406.657C218.527 409.297 217.797 416.037 214.697 419.657C207.587 427.947 194.417 418.857 194.417 418.857C194.417 418.857 183.417 407.967 180.537 399.857C177.207 390.477 184.647 379.387 193.877 377.177C195.977 376.717 198.237 376.587 200.117 375.507Z" fill="#A4C555"/>
</g>
<path d="M169.857 393.767C169.857 393.767 220.627 404.107 224.397 404.577C228.167 405.047 234.837 406.577 241.227 408.117C247.617 409.657 295.767 419.507 298.657 419.417C301.547 419.327 308.387 417.117 312.657 416.127C316.927 415.137 327.047 405.327 326.657 410.527C326.267 415.727 318.367 422.877 316.987 425.227C315.607 427.577 316.337 432.457 310.137 432.347C303.937 432.237 299.967 429.767 293.817 431.527C293.817 431.527 256.287 435.077 249.897 433.677C243.507 432.277 223.667 429.107 214.767 430.517C205.867 431.927 140.607 438.747 127.437 432.207C114.267 425.667 169.857 393.767 169.857 393.767Z" fill="#EDBE00"/>
<g style="mix-blend-mode:multiply" opacity="0.27">
<g style="mix-blend-mode:multiply" opacity="0.27">
<path d="M293.817 431.527C294.157 431.427 294.497 431.347 294.817 431.277C294.469 431.286 294.128 431.371 293.817 431.527Z" fill="#EDBE00"/>
</g>
<g style="mix-blend-mode:multiply" opacity="0.27">
<path d="M285.167 432.287C273.077 431.977 255.357 428.857 246.667 426.837C235.057 424.137 210.287 418.587 193.287 418.837C164.077 419.347 146.497 403.637 146.497 403.637C146.497 403.637 137.177 425.377 132.957 433.767C153.297 437.377 206.777 431.767 214.767 430.477C223.667 429.067 243.517 432.237 249.897 433.637C254.317 434.667 273.677 433.247 285.167 432.287Z" fill="#EDBE00"/>
</g>
</g>
<g style="mix-blend-mode:multiply" opacity="0.27">
<path d="M169.857 393.767L182.727 395.847C182.727 395.847 171.127 427.377 153.777 435.427L137.907 434.427L169.857 393.767Z" fill="#EDBE00"/>
</g>
<path d="M133.177 377.597C133.177 377.597 172.037 354.727 181.547 355.237C191.057 355.747 200.807 364.947 206.247 375.467C211.687 385.987 228.537 421.067 232.197 424.517C235.857 427.967 252.147 431.047 252.647 434.597C253.147 438.147 240.437 434.947 238.037 435.017C230.627 435.247 224.867 437.787 223.037 433.397C219.977 426.107 213.137 421.257 206.887 416.907C198.567 411.127 182.737 400.027 181.057 381.907C179.377 363.787 166.577 369.907 166.577 369.907L133.177 377.597Z" fill="#FFD647"/>
<path d="M11.417 346.717C11.417 346.717 26.707 337.857 37.477 341.717C48.247 345.577 52.567 334.097 62.907 340.237C73.247 346.377 68.907 351.077 77.907 352.237C86.907 353.397 90.907 354.347 94.547 361.717C98.187 369.087 97.607 375.207 105.627 376.087C113.647 376.967 121.787 371.737 125.507 381.997C129.227 392.257 130.867 398.667 138.337 396.667C145.807 394.667 143.897 419.037 123.127 423.047C102.357 427.057 87.747 419.137 85.407 409.267C83.067 399.397 82.667 390.597 73.777 391.957C64.887 393.317 57.927 384.357 58.537 378.497C59.147 372.637 57.247 369.577 49.977 370.297C42.707 371.017 35.467 376.457 32.127 365.927C28.787 355.397 24.487 344.387 11.417 346.717Z" fill="#7C9931"/>
<path d="M28.867 346.777C38.738 348.716 48.3355 351.853 57.447 356.117C66.6104 360.285 75.4108 365.208 83.757 370.837C85.837 372.237 87.837 373.767 89.887 375.227L92.937 377.447L95.877 379.817L101.707 384.597L107.267 389.697L110.037 392.247C110.947 393.107 111.797 394.037 112.677 394.937L117.877 400.377L119.167 401.747L120.377 403.197L122.797 406.077C124.417 407.987 126.007 409.917 127.587 411.857C124.017 408.337 120.687 404.607 117.067 401.167L111.627 396.027C110.707 395.177 109.837 394.287 108.897 393.467L106.067 391.027L100.417 386.137L94.537 381.537L91.607 379.217L88.607 377.047C86.607 375.617 84.607 374.127 82.507 372.747L76.217 368.667C74.137 367.287 71.937 366.117 69.817 364.817C67.697 363.517 65.507 362.337 63.307 361.157L60.067 359.387L56.717 357.737L53.367 356.087L49.957 354.557C47.707 353.487 45.387 352.557 43.077 351.627C38.44 349.732 33.695 348.112 28.867 346.777Z" fill="#5D7325"/>
<g style="mix-blend-mode:multiply" opacity="0.35">
<path d="M138.337 396.667C130.867 398.667 129.197 392.227 125.467 381.967C121.737 371.707 113.597 376.967 105.587 376.057C97.577 375.147 98.197 369.057 94.507 361.687C92.677 358.017 90.757 355.937 88.187 354.627C94.847 363.867 106.057 385.817 97.807 421.537C104.297 424.117 112.977 425.017 123.127 423.047C143.897 419.007 145.807 394.607 138.337 396.667Z" fill="#7C9931"/>
</g>
<path d="M46.267 247.807C46.267 247.807 67.417 247.247 73.567 257.507C79.717 267.767 78.787 274.327 85.757 274.127C92.727 273.927 98.407 274.347 102.247 282.947C105.787 290.877 98.397 299.757 108.867 304.267C111.797 305.527 115.087 306.327 117.327 308.607C123.147 314.537 118.557 323.797 122.567 330.437C127.567 338.767 131.097 346.767 127.307 356.617C126.307 359.167 124.947 361.557 124.137 364.157C123.327 366.757 123.137 369.747 124.537 372.107C125.627 373.947 127.537 375.107 129.077 376.597C135.947 382.947 136.987 396.087 129.587 402.547C123.217 408.107 108.477 412.137 108.477 412.137C108.477 412.137 92.767 413.587 90.657 403.017C89.737 398.417 92.367 392.267 90.537 388.237C89.5512 386.413 88.3234 384.731 86.887 383.237C84.3319 380.199 82.19 376.836 80.517 373.237C79.097 370.187 78.007 366.797 78.637 363.497C79.217 360.497 81.137 357.977 82.237 355.137C83.1587 352.864 83.512 350.402 83.2663 347.962C83.0205 345.522 82.1832 343.179 80.827 341.137C78.827 338.297 76.167 335.847 74.697 332.687C72.697 328.417 73.147 323.337 74.897 318.967C76.177 315.777 78.157 312.517 77.417 309.157C76.197 303.607 69.487 302.417 65.817 299.037C60.817 294.437 60.817 286.557 64.917 281.267C65.3859 280.768 65.7288 280.165 65.917 279.507C66.217 278.017 64.737 276.807 63.437 276.027C60.437 274.197 54.197 272.517 52.307 269.367C45.677 258.317 46.177 252.317 46.267 247.807Z" fill="#A4C555"/>
<path d="M55.297 256.257C58.2297 258.061 60.9589 260.176 63.437 262.567C65.9582 264.921 68.3421 267.419 70.577 270.047C75.0191 275.334 78.9909 280.998 82.447 286.977C85.9318 292.936 89.0185 299.12 91.687 305.487C93.067 308.657 94.277 311.867 95.547 315.067C96.817 318.267 97.997 321.497 99.107 324.747C103.745 337.718 107.379 351.028 109.977 364.557C111.257 371.327 112.207 378.157 112.807 385.007C113.39 391.854 113.593 398.727 113.417 405.597C112.659 391.933 110.803 378.353 107.867 364.987C106.397 358.317 104.777 351.687 102.817 345.147C100.857 338.607 98.817 332.077 96.577 325.637C92.047 312.747 87.247 299.917 80.677 287.977C77.4271 281.989 73.7229 276.259 69.597 270.837C67.5345 268.118 65.321 265.517 62.967 263.047C61.787 261.82 60.5603 260.633 59.287 259.487C58.0323 258.32 56.6991 257.241 55.297 256.257Z" fill="#7C9931"/>
<g style="mix-blend-mode:multiply" opacity="0.39">
<path d="M124.537 372.107C123.147 369.747 123.327 366.767 124.137 364.157C124.947 361.547 126.327 359.157 127.307 356.617C131.097 346.767 127.587 338.767 122.567 330.437C122.295 329.989 122.057 329.521 121.857 329.037C124.447 350.037 112.427 370.677 79.107 369.627C79.489 370.872 79.9602 372.089 80.517 373.267C82.19 376.866 84.3319 380.229 86.887 383.267C88.3234 384.761 89.5512 386.443 90.537 388.267C92.367 392.267 89.737 398.447 90.657 403.047C92.767 413.617 108.477 412.167 108.477 412.167C108.477 412.167 123.217 408.167 129.587 402.577C136.987 396.117 135.947 382.977 129.077 376.627C127.507 375.147 125.627 373.947 124.537 372.107Z" fill="#A4C555"/>
</g>
<path d="M141.167 312.267C146.397 310.427 152.087 313.687 156.237 317.987C160.064 322.006 163.527 326.357 166.587 330.987C168.367 333.627 170.057 336.317 171.737 338.987C172.337 339.987 176.797 345.757 176.447 346.587C178.307 342.147 181.707 338.347 184.817 334.757C190.421 328.186 195.614 321.277 200.367 314.067C200.367 314.067 204.107 308.297 204.987 304.967C205.867 301.637 209.117 293.027 214.247 293.557C219.377 294.087 219.127 299.267 217.097 303.437C215.067 307.607 213.097 307.987 211.937 312.217C208.287 325.757 204.447 339.447 199.097 352.427C193.247 366.667 181.067 377.667 164.657 371.927C151.037 367.167 143.337 354.097 137.377 342.127C135.277 337.917 133.377 333.507 132.877 328.827C132.377 324.147 133.367 319.127 136.467 315.587C137.719 314.091 139.339 312.947 141.167 312.267Z" fill="#D46F40"/>
<path d="M199.067 352.427C200.697 348.477 202.237 344.427 203.697 340.367C195.477 338.537 190.597 334.477 187.847 331.107C186.847 332.327 185.847 333.547 184.787 334.747C181.677 338.337 178.207 341.567 176.337 346.007C176.687 345.177 172.337 339.947 171.707 339.007C170.027 336.307 168.337 333.617 166.557 331.007C163.497 326.377 160.034 322.026 156.207 318.007C152.067 313.667 146.327 309.857 141.067 311.667C139.239 312.347 137.619 313.491 136.367 314.987C133.257 318.527 132.367 324.117 132.847 328.797C133.327 333.477 135.247 337.887 137.347 342.097C143.347 354.097 151.007 367.097 164.627 371.897C181.067 377.667 193.247 366.667 199.067 352.427Z" fill="#99152A"/>
<g opacity="0.4">
<path opacity="0.4" d="M200.827 347.497C194.737 361.607 182.337 372.417 166.067 366.427C152.527 361.427 145.067 348.257 139.277 336.187C137.277 331.947 135.437 327.507 134.997 322.817C134.815 320.972 134.889 319.111 135.217 317.287C133.173 320.765 132.35 324.827 132.877 328.827C133.397 333.507 135.277 337.917 137.377 342.127C143.377 354.127 151.037 367.127 164.657 371.927C181.067 377.667 193.247 366.667 199.067 352.427C200.377 349.257 201.587 346.047 202.737 342.807C202.137 344.377 201.497 345.947 200.827 347.497Z" fill="#99152A"/>
</g>
<path d="M174.167 350.777C174.702 349.044 175.476 347.395 176.467 345.877L175.817 344.597C175.817 344.597 173.737 348.127 174.167 350.777Z" fill="#99152A"/>
<path d="M195.837 381.467C193.477 379.157 171.377 411.467 169.487 413.887C164.487 420.447 158.587 426.607 151.367 430.767C144.147 434.927 135.657 436.227 127.277 436.147H126.497C103.827 436.807 90.107 414.527 89.497 407.617C88.887 400.707 102.067 390.747 102.067 390.747L142.497 372.287L167.067 365.397L174.607 360.177L195.837 381.467Z" fill="#FFD647"/>
<path d="M223.827 301.487L193.567 311.387C193.14 311.521 192.681 311.508 192.262 311.351C191.843 311.193 191.489 310.899 191.257 310.517L190.387 309.037C188.937 306.589 188.138 303.811 188.067 300.967C188.06 300.542 188.187 300.127 188.432 299.78C188.676 299.433 189.025 299.172 189.427 299.037L219.787 289.107L223.827 301.487Z" fill="#72BDB9"/>
<path opacity="0.24" d="M195.267 308.597C194.839 308.73 194.379 308.716 193.96 308.556C193.541 308.397 193.188 308.101 192.957 307.717L192.077 306.247C190.758 304.013 189.978 301.504 189.797 298.917L189.417 299.037C189.017 299.174 188.67 299.435 188.428 299.782C188.185 300.129 188.059 300.543 188.067 300.967C188.141 303.812 188.943 306.59 190.397 309.037L191.267 310.517C191.499 310.899 191.853 311.193 192.272 311.35C192.691 311.508 193.15 311.521 193.577 311.387L223.837 301.487L223.177 299.487L195.267 308.597Z" fill="#008982"/>
<path d="M219.207 289.917C219.68 293.465 220.777 296.901 222.447 300.067C222.961 301.026 223.779 301.788 224.772 302.234C225.766 302.679 226.879 302.782 227.937 302.527L269.007 292.977L260.907 269.927L222.367 284.667C221.333 285.067 220.461 285.8 219.889 286.751C219.316 287.701 219.077 288.815 219.207 289.917Z" fill="#279593"/>
<g style="mix-blend-mode:multiply" opacity="0.38">
<path d="M230.127 298.467C229.069 298.722 227.956 298.619 226.962 298.174C225.969 297.728 225.151 296.966 224.637 296.007C222.967 292.841 221.87 289.405 221.397 285.857C221.382 285.63 221.382 285.403 221.397 285.177C220.636 285.692 220.032 286.407 219.651 287.243C219.27 288.079 219.127 289.004 219.237 289.917C219.71 293.465 220.807 296.901 222.477 300.067C222.991 301.026 223.809 301.788 224.802 302.234C225.796 302.679 226.909 302.782 227.967 302.527L269.037 292.977L267.857 289.667L230.127 298.467Z" fill="#279593"/>
</g>
<path d="M251.667 277.297C252.318 282.191 253.832 286.931 256.137 291.297C256.85 292.622 257.98 293.674 259.353 294.291C260.725 294.908 262.263 295.054 263.727 294.707L319.357 281.527L309.307 249.667L256.067 270.027C254.622 270.566 253.402 271.578 252.603 272.897C251.805 274.216 251.475 275.767 251.667 277.297Z" fill="#72BDB9"/>
<path opacity="0.24" d="M265.067 289.517C263.411 289.914 261.67 289.751 260.116 289.055C258.562 288.358 257.283 287.167 256.477 285.667C254.503 281.914 253.037 277.916 252.117 273.777C251.651 274.888 251.486 276.102 251.637 277.297C252.288 282.191 253.802 286.931 256.107 291.297C256.82 292.622 257.95 293.674 259.323 294.291C260.695 294.908 262.233 295.054 263.697 294.707L319.327 281.527L317.887 276.967L265.067 289.517Z" fill="#008982"/>
<path d="M318.207 284.877C317.02 285.242 315.737 285.123 314.638 284.543C313.54 283.964 312.716 282.973 312.347 281.787L303.067 251.667C302.884 251.08 302.819 250.462 302.875 249.85C302.931 249.238 303.107 248.643 303.393 248.099C303.679 247.554 304.069 247.072 304.542 246.679C305.015 246.285 305.56 245.989 306.147 245.807C307.334 245.441 308.617 245.561 309.716 246.14C310.814 246.719 311.638 247.711 312.007 248.897L321.327 278.977C321.515 279.569 321.583 280.192 321.528 280.811C321.472 281.43 321.294 282.031 321.004 282.581C320.713 283.13 320.316 283.616 319.836 284.01C319.356 284.404 318.802 284.699 318.207 284.877Z" fill="#72BDB9"/>
<path opacity="0.24" d="M313.667 281.377L304.347 251.297C304.013 250.226 304.076 249.071 304.524 248.042C304.972 247.014 305.776 246.181 306.787 245.697C306.557 245.732 306.33 245.782 306.107 245.847C304.938 246.224 303.964 247.045 303.395 248.134C302.826 249.223 302.709 250.492 303.067 251.667L312.387 281.747C312.756 282.933 313.58 283.924 314.678 284.503C315.777 285.083 317.06 285.202 318.247 284.837C318.467 284.768 318.681 284.681 318.887 284.577C317.778 284.757 316.641 284.533 315.683 283.946C314.725 283.359 314.009 282.447 313.667 281.377Z" fill="#008982"/>
<path d="M249.507 299.037L249.697 305.437L265.177 304.987L264.487 281.077" stroke="#292929" stroke-width="4.04" stroke-miterlimit="10" stroke-linecap="round"/>
<path d="M260.886 305.135L254.619 305.317L257.03 388.022L263.298 387.839L260.886 305.135Z" fill="#292929"/>
<path d="M269.974 387.638L250.312 388.212L250.398 391.15L270.059 390.577L269.974 387.638Z" fill="#292929"/>
<path d="M267.867 390.047L274.927 433.697" stroke="#292929" stroke-width="4.04" stroke-miterlimit="10" stroke-linecap="square"/>
<path d="M260.487 390.267L261.527 434.087" stroke="#292929" stroke-width="4.04" stroke-miterlimit="10" stroke-linecap="square"/>
<path d="M252.537 390.497L248.027 434.487" stroke="#292929" stroke-width="4.04" stroke-miterlimit="10" stroke-linecap="square"/>
<path d="M147.067 296.577C147.067 296.577 145.907 302.957 141.777 306.337C137.647 309.717 126.067 317.177 118.247 325.097C110.427 333.017 95.767 351.907 90.557 370.897C85.347 389.887 85.417 412.187 94.687 413.647C103.957 415.107 111.307 409.707 114.977 404.017C118.647 398.327 125.827 386.947 129.837 386.167C133.847 385.387 150.927 377.597 151.147 365.087C151.223 358.135 151.66 351.193 152.457 344.287L157.237 323.577L153.167 322.577C153.167 322.577 157.347 314.197 161.487 311.377C165.627 308.557 158.277 299.997 158.277 299.997L154.817 293.507L151.427 289.177L148.067 293.467L147.067 296.577Z" fill="#EA9977"/>
<path d="M183.269 301.111C189.106 289.885 186.262 276.846 176.917 271.987C167.573 267.129 155.266 272.291 149.429 283.518C143.593 294.744 146.437 307.783 155.781 312.641C165.126 317.499 177.433 312.337 183.269 301.111Z" fill="#EA9977"/>
<path d="M179.537 297.187L184.017 299.517C184.017 299.517 180.357 307.067 181.017 309.447C181.677 311.827 175.517 309.257 175.517 309.257L179.537 297.187Z" fill="#EA9977"/>
<g style="mix-blend-mode:multiply" opacity="0.36">
<path d="M164.647 277.037C161.277 279.317 151.537 279.517 149.417 283.587C146.987 288.156 145.99 293.352 146.557 298.497C145.907 300.647 144.467 304.197 141.737 306.437C139.947 307.907 140.427 307.437 136.737 310.147C144.667 315.537 151.537 318.637 155.257 318.527C156.336 316.912 157.522 315.372 158.807 313.917C162.034 314.79 165.442 314.731 168.637 313.747C154.207 307.947 157.787 288.957 164.647 277.037Z" fill="#EA9977"/>
</g>
<path opacity="0.49" d="M184.317 393.467L184.207 393.347C183.147 392.347 182.497 390.397 182.107 388.477C181.789 386.874 181.592 385.249 181.517 383.617C179.517 387.617 181.147 390.317 181.077 392.857C125.977 441.477 103.067 408.667 103.067 408.667L94.537 405.327C93.5805 403.92 92.7154 402.454 91.947 400.937C90.377 403.207 89.307 405.547 89.487 407.617C90.077 414.527 103.797 436.807 126.487 436.147H127.267C135.647 436.227 144.017 434.997 151.357 430.767C158.697 426.537 164.437 420.447 169.477 413.887C170.197 412.957 173.817 407.737 178.167 401.747C178.927 400.747 179.697 399.637 180.487 398.567C181.767 396.857 183.067 395.127 184.317 393.467Z" fill="#EDBE00"/>
<path d="M232.197 424.517C231.357 423.727 229.837 421.287 227.917 417.867C224.641 420.706 220.99 423.081 217.067 424.927C219.614 427.32 221.654 430.2 223.067 433.397C224.907 437.787 230.667 435.247 238.067 435.017C240.467 434.947 253.177 438.137 252.677 434.597C252.177 431.057 235.847 427.967 232.197 424.517Z" fill="#EA9977"/>
<path d="M133.277 377.547L133.177 377.597H133.297L133.277 377.547Z" fill="#EA9977"/>
<path d="M155.137 319.667L155.277 318.567C148.377 317.057 143.787 312.117 141.057 306.927C136.457 310.527 125.697 317.617 118.247 325.137C110.407 333.057 95.767 351.947 90.557 370.937C85.347 389.927 85.417 412.227 94.687 413.687C103.957 415.147 111.307 409.747 114.977 404.057C118.647 398.367 130.027 388.187 133.547 386.057C149.287 376.717 154.817 366.767 155.027 354.267C155.237 341.767 152.457 344.267 152.457 344.267L157.237 323.557L153.167 322.557C153.887 321.638 154.545 320.673 155.137 319.667Z" fill="#C61E36"/>
<path d="M133.547 386.067C149.287 376.727 154.817 366.777 155.027 354.277C155.237 341.777 152.457 344.277 152.457 344.277L153.027 341.827C149.227 340.317 146.087 339.177 146.087 339.177L139.017 334.177C139.017 334.177 133.087 349.267 138.017 357.827C143.277 366.887 139.767 369.307 132.907 369.507C126.047 369.707 126.827 377.997 125.817 384.227C124.807 390.457 119.437 398.587 119.437 398.587C124.347 393.327 130.997 387.577 133.547 386.067Z" fill="#99152A"/>
<path d="M143.927 317.487C148.927 315.117 154.927 317.757 159.507 321.597C163.733 325.179 167.635 329.128 171.167 333.397C173.167 335.837 175.167 338.327 177.167 340.837C177.867 341.737 182.907 347.037 182.647 347.897C184.037 343.287 187.017 339.147 189.737 335.257C194.616 328.137 199.051 320.723 203.017 313.057C203.017 313.057 206.137 306.927 206.667 303.517C207.197 300.107 209.517 291.217 214.667 291.207C219.817 291.197 220.127 296.377 218.547 300.737C216.967 305.097 215.037 305.667 214.337 310.007C212.127 323.847 209.747 337.867 205.797 351.337C201.467 366.087 190.467 378.337 173.597 374.337C159.547 371.037 150.517 358.857 143.327 347.577C140.797 343.577 138.467 339.417 137.457 334.817C136.447 330.217 136.927 325.117 139.637 321.277C140.716 319.664 142.194 318.358 143.927 317.487Z" fill="#EA9977"/>
<path d="M205.757 351.337C206.957 347.237 208.057 343.067 209.087 338.857C200.727 337.907 195.447 334.377 192.357 331.307C191.487 332.637 190.607 333.957 189.697 335.257C186.977 339.147 183.867 342.727 182.477 347.337C182.737 346.477 177.827 341.737 177.127 340.837C175.177 338.327 173.207 335.837 171.127 333.397C167.595 329.128 163.693 325.179 159.467 321.597C154.887 317.757 148.757 314.597 143.747 316.927C142.003 317.799 140.514 319.108 139.427 320.727C136.707 324.567 136.377 330.227 137.377 334.827C138.377 339.427 140.717 343.617 143.247 347.577C150.437 358.867 159.467 371.047 173.517 374.347C190.427 378.317 201.427 366.087 205.757 351.337Z" fill="#C61E36"/>
<g opacity="0.4">
<path opacity="0.4" d="M206.947 346.257C202.377 360.927 191.187 372.977 174.377 368.737C160.377 365.207 151.557 352.877 144.557 341.477C142.087 337.477 139.827 333.237 138.897 328.627C138.524 326.812 138.4 324.955 138.527 323.107C136.862 326.781 136.471 330.905 137.417 334.827C138.417 339.427 140.757 343.617 143.287 347.577C150.477 358.867 159.507 371.047 173.557 374.347C190.427 378.347 201.427 366.087 205.757 351.347C206.757 348.067 207.587 344.737 208.387 341.397C207.927 343.017 207.457 344.667 206.947 346.257Z" fill="#99152A"/>
</g>
<path d="M180.787 352.317C181.138 350.537 181.734 348.814 182.557 347.197L181.777 345.997C181.777 345.997 180.067 349.727 180.787 352.317Z" fill="#99152A"/>
<path opacity="0.4" d="M95.667 376.967C99.367 356.837 112.827 335.967 120.237 327.067C126.777 319.207 136.297 311.487 141.177 307.067L141.057 306.847C136.457 310.447 125.697 317.537 118.247 325.057C110.407 332.977 95.767 351.867 90.557 370.857C85.347 389.847 85.417 412.147 94.687 413.607C95.3262 413.71 95.9704 413.78 96.617 413.817C93.307 405.357 93.187 390.497 95.667 376.967Z" fill="#99152A"/>
<path d="M312.687 416.127C308.387 417.127 301.537 419.337 298.687 419.417C297.482 419.321 296.283 419.158 295.097 418.927C294.846 423.174 294.295 427.398 293.447 431.567H293.847C299.997 429.807 303.957 432.277 310.167 432.387C316.377 432.497 315.647 427.617 317.017 425.267C318.387 422.917 326.257 415.767 326.687 410.567C327.117 405.367 316.987 415.137 312.687 416.127Z" fill="#D46F40"/>
<path d="M192.067 272.017C191.577 271.911 191.078 271.847 190.577 271.827C189.86 271.808 189.156 271.632 188.514 271.311C187.873 270.989 187.311 270.53 186.867 269.967C186.777 269.847 186.677 269.737 186.577 269.617C185.827 268.753 185.369 267.675 185.267 266.537C185.213 265.997 185.102 265.464 184.937 264.947C184.41 263.306 183.314 261.907 181.848 261.001C180.382 260.096 178.64 259.743 176.937 260.007C176.209 260.11 175.469 260.062 174.76 259.868C174.051 259.674 173.39 259.336 172.817 258.877C171.03 257.46 168.847 256.633 166.57 256.512C164.293 256.39 162.035 256.979 160.107 258.197C159.198 258.783 158.127 259.067 157.047 259.007C156.817 259.007 156.587 259.007 156.357 259.007C155.282 259.038 154.227 259.309 153.268 259.798C152.31 260.288 151.473 260.984 150.817 261.837C150.228 262.579 149.43 263.127 148.527 263.412C147.623 263.698 146.655 263.706 145.747 263.437C143.969 262.929 142.064 263.124 140.424 263.98C138.785 264.835 137.537 266.288 136.937 268.037C136.781 268.469 136.664 268.914 136.587 269.367C136.462 270.208 136.159 271.013 135.698 271.729C135.238 272.444 134.631 273.054 133.917 273.517C131.668 274.936 130.01 277.122 129.248 279.67C128.487 282.219 128.675 284.956 129.777 287.377C130.237 288.361 130.458 289.44 130.423 290.526C130.388 291.611 130.099 292.674 129.577 293.627C128.645 295.332 128.182 297.254 128.234 299.197C128.287 301.14 128.853 303.034 129.875 304.687C130.897 306.339 132.339 307.692 134.054 308.606C135.769 309.521 137.696 309.965 139.638 309.893C141.58 309.821 143.468 309.236 145.111 308.197C146.753 307.158 148.091 305.702 148.988 303.978C149.885 302.254 150.31 300.323 150.218 298.382C150.127 296.441 149.522 294.559 148.467 292.927C148.127 292.427 147.953 291.833 147.967 291.229C147.981 290.625 148.184 290.04 148.547 289.557C148.856 289.164 149.259 288.855 149.718 288.658C150.178 288.46 150.679 288.381 151.177 288.427C151.62 288.457 152.064 288.457 152.507 288.427C154.851 288.364 157.113 287.554 158.964 286.115C160.816 284.676 162.158 282.683 162.797 280.427C162.952 279.859 163.296 279.362 163.773 279.019C164.25 278.675 164.83 278.504 165.417 278.537C165.697 278.537 165.997 278.537 166.287 278.537C168.128 278.482 169.927 277.967 171.517 277.037C171.796 276.887 172.103 276.794 172.418 276.763C172.734 276.732 173.052 276.764 173.355 276.857C173.659 276.95 173.94 277.102 174.184 277.305C174.428 277.507 174.63 277.756 174.777 278.037C175.359 279.024 176.166 279.86 177.132 280.477C178.098 281.093 179.196 281.474 180.337 281.587C180.337 281.687 180.337 281.797 180.337 281.897C180.452 284.452 181.564 286.86 183.435 288.604C185.305 290.348 187.785 291.289 190.342 291.225C192.899 291.16 195.329 290.096 197.109 288.261C198.89 286.425 199.88 283.964 199.867 281.407C199.808 279.193 199.007 277.064 197.593 275.361C196.178 273.658 194.232 272.48 192.067 272.017Z" fill="#292929"/>
<g style="mix-blend-mode:multiply" opacity="0.38">
<path d="M141.397 286.557C141.767 283.457 143.477 279.277 136.757 276.717C136.083 276.419 135.49 275.965 135.025 275.393C134.561 274.821 134.24 274.147 134.087 273.427L133.987 273.497C131.738 274.916 130.079 277.102 129.318 279.65C128.557 282.199 128.745 284.936 129.847 287.357C130.307 288.341 130.528 289.42 130.493 290.506C130.458 291.591 130.169 292.654 129.647 293.607C128.848 295.088 128.4 296.733 128.337 298.415C128.274 300.097 128.598 301.771 129.283 303.308C129.969 304.845 130.998 306.204 132.291 307.281C133.585 308.358 135.108 309.124 136.744 309.519C138.38 309.915 140.085 309.93 141.727 309.563C143.37 309.196 144.907 308.457 146.219 307.403C147.531 306.348 148.583 305.007 149.296 303.482C150.008 301.957 150.361 300.289 150.327 298.607C150.309 297.845 150.209 297.087 150.027 296.347C141.237 296.667 141.067 289.507 141.397 286.557Z" fill="#292929"/>
</g>
<g style="mix-blend-mode:multiply" opacity="0.38">
<path d="M184.067 280.527C184.067 280.407 184.067 280.287 184.067 280.167C182.776 280.087 181.522 279.704 180.406 279.049C179.291 278.394 178.345 277.485 177.647 276.397C177.464 276.091 177.222 275.825 176.936 275.613C176.65 275.401 176.325 275.247 175.98 275.161C175.634 275.074 175.275 275.057 174.923 275.109C174.571 275.162 174.232 275.283 173.927 275.467C172.171 276.582 170.163 277.238 168.087 277.377C167.757 277.377 167.427 277.377 167.087 277.377C166.614 277.371 166.148 277.48 165.728 277.697C165.307 277.913 164.947 278.229 164.677 278.617C164.94 278.541 165.214 278.511 165.487 278.527C165.767 278.527 166.067 278.527 166.357 278.527C168.198 278.472 169.997 277.957 171.587 277.027C171.866 276.877 172.173 276.784 172.488 276.753C172.804 276.722 173.122 276.754 173.425 276.847C173.729 276.94 174.01 277.092 174.254 277.295C174.498 277.497 174.7 277.746 174.847 278.027C175.429 279.014 176.236 279.85 177.202 280.467C178.168 281.083 179.266 281.464 180.407 281.577C180.407 281.677 180.407 281.787 180.407 281.887C180.483 284.476 181.584 286.93 183.469 288.708C185.354 290.486 187.867 291.442 190.457 291.367C191.531 291.337 192.592 291.128 193.597 290.747C191.07 290.411 188.739 289.208 187.001 287.344C185.262 285.48 184.225 283.07 184.067 280.527Z" fill="#292929"/>
</g>
<path opacity="0.26" d="M495.647 289.087C495.577 289.287 495.556 289.502 495.586 289.712C495.615 289.922 495.695 290.123 495.817 290.297C495.619 290.222 495.406 290.198 495.197 290.226C494.987 290.254 494.788 290.333 494.617 290.457C494.686 290.257 494.707 290.045 494.678 289.836C494.648 289.627 494.569 289.428 494.447 289.257C494.646 289.326 494.859 289.347 495.067 289.317C495.276 289.288 495.475 289.209 495.647 289.087Z" fill="#D2F7F5"/>
<path opacity="0.26" d="M600.867 185.067C600.617 185.756 600.539 186.495 600.638 187.222C600.737 187.948 601.011 188.639 601.437 189.237C600.747 188.988 600.007 188.912 599.28 189.013C598.554 189.114 597.863 189.39 597.267 189.817C597.514 189.125 597.591 188.384 597.492 187.657C597.392 186.93 597.12 186.237 596.697 185.637C597.386 185.886 598.126 185.965 598.852 185.865C599.578 185.766 600.27 185.492 600.867 185.067Z" fill="#D2F7F5"/>
<path opacity="0.26" d="M447.037 69.9473C446.792 70.6378 446.716 71.3773 446.817 72.1032C446.918 72.8291 447.193 73.52 447.617 74.1173C446.927 73.8703 446.188 73.7932 445.462 73.8924C444.737 73.9916 444.045 74.2643 443.447 74.6873C443.694 73.997 443.771 73.2572 443.67 72.531C443.569 71.8048 443.293 71.1138 442.867 70.5173C443.557 70.7668 444.296 70.8452 445.022 70.7459C445.749 70.6467 446.44 70.3726 447.037 69.9473Z" fill="#D2F7F5"/>
<path opacity="0.26" d="M462.586 283.227L462.746 283.727C462.804 283.91 462.905 284.077 463.041 284.212C463.176 284.348 463.343 284.449 463.526 284.507L464.036 284.667L463.526 284.827C463.343 284.884 463.176 284.985 463.041 285.121C462.905 285.257 462.804 285.423 462.746 285.607L462.586 286.107L462.436 285.607C462.379 285.423 462.278 285.257 462.142 285.121C462.007 284.985 461.84 284.884 461.656 284.827L461.146 284.667L461.656 284.507C461.84 284.449 462.007 284.348 462.142 284.212C462.278 284.077 462.379 283.91 462.436 283.727L462.586 283.227Z" fill="#D2F7F5"/>
<path opacity="0.26" d="M506.307 256.947L506.467 257.447C506.525 257.631 506.626 257.797 506.761 257.933C506.897 258.069 507.064 258.17 507.247 258.227L507.757 258.387L507.247 258.547C507.064 258.605 506.897 258.706 506.761 258.841C506.626 258.977 506.525 259.144 506.467 259.327L506.307 259.827L506.157 259.327C506.1 259.144 505.999 258.977 505.863 258.841C505.727 258.706 505.561 258.605 505.377 258.547L504.867 258.387L505.377 258.227C505.561 258.17 505.727 258.069 505.863 257.933C505.999 257.797 506.1 257.631 506.157 257.447L506.307 256.947Z" fill="#D2F7F5"/>
<path opacity="0.53" d="M613.897 250.727L614.227 251.727C614.345 252.105 614.553 252.45 614.833 252.73C615.114 253.01 615.458 253.219 615.837 253.337L616.837 253.667L615.837 253.997C615.459 254.114 615.116 254.32 614.835 254.599C614.555 254.877 614.346 255.22 614.227 255.597L613.897 256.647L613.577 255.597C613.456 255.221 613.247 254.879 612.966 254.601C612.686 254.322 612.344 254.115 611.967 253.997L610.967 253.667L611.967 253.337C612.345 253.217 612.688 253.008 612.968 252.728C613.249 252.448 613.457 252.104 613.577 251.727L613.897 250.727Z" fill="#D2F7F5"/>
<path opacity="0.53" d="M706.797 264.947L707.127 265.947C707.245 266.326 707.453 266.67 707.734 266.951C708.014 267.231 708.359 267.439 708.737 267.557L709.737 267.887L708.737 268.217C708.36 268.334 708.016 268.541 707.736 268.82C707.455 269.098 707.247 269.44 707.127 269.817L706.797 270.867L706.477 269.817C706.356 269.441 706.147 269.1 705.867 268.821C705.587 268.543 705.244 268.336 704.867 268.217L703.867 267.887L704.867 267.557C705.245 267.438 705.588 267.229 705.869 266.949C706.149 266.669 706.358 266.325 706.477 265.947L706.797 264.947Z" fill="#D2F7F5"/>
<path opacity="0.53" d="M593.797 291.947L594.127 292.947C594.245 293.326 594.453 293.67 594.734 293.951C595.014 294.231 595.359 294.439 595.737 294.557L596.737 294.887L595.737 295.217C595.36 295.334 595.016 295.541 594.736 295.82C594.455 296.098 594.247 296.44 594.127 296.817L593.797 297.867L593.477 296.817C593.356 296.441 593.147 296.1 592.867 295.821C592.587 295.543 592.244 295.336 591.867 295.217L590.867 294.887L591.867 294.557C592.245 294.438 592.588 294.229 592.869 293.949C593.149 293.669 593.358 293.325 593.477 292.947L593.797 291.947Z" fill="#D2F7F5"/>
<path opacity="0.7" d="M602.357 140.407L603.937 142.177C604.509 142.822 605.229 143.318 606.036 143.623C606.842 143.928 607.711 144.032 608.567 143.927L610.927 143.647L609.147 145.227C608.504 145.8 608.009 146.521 607.704 147.327C607.399 148.133 607.294 149.001 607.397 149.857L607.687 152.217L606.067 150.437C605.492 149.795 604.771 149.301 603.965 148.996C603.159 148.692 602.292 148.585 601.437 148.687L599.077 148.977L600.847 147.397C601.49 146.823 601.985 146.102 602.289 145.296C602.594 144.49 602.699 143.622 602.597 142.767L602.357 140.407Z" fill="#D2F7F5"/>
<path opacity="0.26" d="M551.477 103.667L551.797 104.667C551.915 105.045 552.123 105.39 552.403 105.67C552.684 105.95 553.028 106.159 553.407 106.277L554.407 106.597L553.407 106.927C553.013 107.057 552.659 107.285 552.377 107.589C552.096 107.893 551.896 108.264 551.797 108.667L551.477 109.667L551.147 108.667C551.029 108.288 550.82 107.944 550.54 107.663C550.26 107.383 549.915 107.175 549.537 107.057L548.537 106.727L549.537 106.407C549.915 106.289 550.26 106.08 550.54 105.8C550.82 105.52 551.029 105.175 551.147 104.797L551.477 103.667Z" fill="#D2F7F5"/>
<path d="M546.307 380.747L546.637 381.747C546.756 382.124 546.965 382.468 547.245 382.748C547.525 383.028 547.869 383.237 548.247 383.357L549.247 383.677L548.247 384.007C547.868 384.125 547.524 384.333 547.243 384.613C546.963 384.894 546.755 385.238 546.637 385.617L546.307 386.617L545.987 385.617C545.869 385.238 545.661 384.894 545.38 384.613C545.1 384.333 544.755 384.125 544.377 384.007L543.377 383.677L544.377 383.357C544.755 383.237 545.098 383.028 545.378 382.748C545.659 382.468 545.867 382.124 545.987 381.747L546.307 380.747Z" fill="#D2F7F5"/>
<path d="M470.457 146.257L470.777 147.257C470.898 147.634 471.107 147.976 471.387 148.256C471.667 148.536 472.01 148.746 472.387 148.867L473.387 149.197L472.387 149.527C472.01 149.648 471.667 149.857 471.387 150.137C471.107 150.417 470.898 150.76 470.777 151.137L470.457 152.137L470.127 151.137C470.009 150.758 469.801 150.414 469.52 150.133C469.24 149.853 468.895 149.645 468.517 149.527L467.517 149.197L468.517 148.867C468.895 148.749 469.24 148.54 469.52 148.26C469.801 147.98 470.009 147.635 470.127 147.257L470.457 146.257Z" fill="#D2F7F5"/>
<path opacity="0.08" d="M492.157 160.917L492.477 161.917C492.592 162.298 492.796 162.647 493.073 162.934C493.349 163.221 493.69 163.437 494.067 163.567L495.067 163.887L494.067 164.217C493.689 164.336 493.345 164.545 493.065 164.825C492.785 165.105 492.576 165.449 492.457 165.827L492.137 166.827L491.807 165.827C491.689 165.448 491.481 165.104 491.2 164.823C490.92 164.543 490.575 164.335 490.197 164.217L489.197 163.887L490.197 163.567C490.574 163.446 490.917 163.236 491.197 162.956C491.477 162.676 491.686 162.334 491.807 161.957L492.157 160.917Z" fill="#D2F7F5"/>
<path opacity="0.08" d="M393.857 233.157L394.177 234.157C394.296 234.534 394.505 234.878 394.785 235.158C395.065 235.438 395.409 235.647 395.787 235.767L396.787 236.087L395.787 236.417C395.408 236.535 395.064 236.743 394.783 237.023C394.503 237.304 394.295 237.648 394.177 238.027L393.857 239.027L393.527 238.027C393.409 237.648 393.201 237.304 392.92 237.023C392.64 236.743 392.295 236.535 391.917 236.417L390.917 236.087L391.917 235.767C392.295 235.647 392.638 235.438 392.918 235.158C393.199 234.878 393.407 234.534 393.527 234.157L393.857 233.157Z" fill="#D2F7F5"/>
<path opacity="0.08" d="M498.707 130.947L498.907 131.587C498.98 131.823 499.11 132.036 499.284 132.211C499.458 132.385 499.672 132.514 499.907 132.587L500.547 132.787L499.907 132.987C499.672 133.06 499.458 133.19 499.284 133.364C499.11 133.538 498.98 133.752 498.907 133.987L498.707 134.627L498.507 133.987C498.434 133.752 498.305 133.538 498.131 133.364C497.956 133.19 497.742 133.06 497.507 132.987L496.867 132.787L497.507 132.587C497.742 132.514 497.956 132.385 498.131 132.211C498.305 132.036 498.434 131.823 498.507 131.587L498.707 130.947Z" fill="#D2F7F5"/>
<path opacity="0.26" d="M421.517 247.757L421.847 248.757C421.968 249.134 422.177 249.476 422.457 249.756C422.737 250.036 423.08 250.246 423.457 250.367L424.457 250.687L423.457 251.017C423.078 251.135 422.734 251.343 422.453 251.623C422.173 251.904 421.965 252.248 421.847 252.627L421.517 253.627L421.187 252.627C421.069 252.248 420.861 251.904 420.58 251.623C420.3 251.343 419.955 251.135 419.577 251.017L418.577 250.687L419.577 250.367C419.954 250.246 420.297 250.036 420.577 249.756C420.857 249.476 421.066 249.134 421.187 248.757L421.517 247.757Z" fill="#D2F7F5"/>
<path opacity="0.26" d="M347.067 263.437L347.397 264.437C347.516 264.814 347.725 265.158 348.005 265.438C348.285 265.718 348.629 265.927 349.007 266.047L350.007 266.367L349.007 266.697C348.628 266.815 348.284 267.023 348.003 267.303C347.723 267.584 347.515 267.928 347.397 268.307L347.067 269.307L346.747 268.307C346.629 267.928 346.421 267.584 346.14 267.303C345.86 267.023 345.515 266.815 345.137 266.697L344.137 266.367L345.137 266.047C345.515 265.927 345.858 265.718 346.138 265.438C346.418 265.158 346.627 264.814 346.747 264.437L347.067 263.437Z" fill="#D2F7F5"/>
<path d="M489.797 89.9473L490.127 90.9473C490.245 91.3259 490.453 91.6702 490.734 91.9507C491.014 92.2311 491.359 92.4393 491.737 92.5573L492.737 92.8873L491.737 93.2073C491.352 93.335 491.004 93.5548 490.724 93.8476C490.443 94.1404 490.238 94.4973 490.127 94.8873L489.797 95.8873L489.477 94.8873C489.356 94.5102 489.147 94.1675 488.867 93.8875C488.587 93.6075 488.244 93.3983 487.867 93.2773L486.867 92.9573L487.867 92.6273C488.246 92.5093 488.59 92.3011 488.871 92.0207C489.151 91.7402 489.359 91.3959 489.477 91.0173L489.797 89.9473Z" fill="#D2F7F5"/>
<path d="M593.687 381.227L593.397 382.277C593.289 382.659 593.276 383.061 593.358 383.449C593.44 383.838 593.614 384.2 593.867 384.507L594.557 385.347L593.557 385.047C593.174 384.942 592.773 384.93 592.385 385.011C591.997 385.093 591.634 385.266 591.327 385.517L590.487 386.217L590.787 385.167C590.891 384.784 590.904 384.382 590.822 383.995C590.74 383.607 590.567 383.244 590.317 382.937L589.617 382.097L590.617 382.387C590.999 382.494 591.401 382.507 591.789 382.425C592.178 382.344 592.541 382.169 592.847 381.917L593.687 381.227Z" fill="#D2F7F5"/>
<path d="M505.777 190.947L505.447 192.507C505.326 193.073 505.344 193.659 505.499 194.217C505.654 194.774 505.941 195.285 506.337 195.707L507.427 196.867L505.867 196.537C505.302 196.413 504.714 196.43 504.157 196.585C503.599 196.74 503.088 197.029 502.667 197.427L501.507 198.507L501.837 196.957C501.961 196.392 501.945 195.805 501.79 195.247C501.634 194.689 501.345 194.178 500.947 193.757L499.867 192.597L501.417 192.927C501.983 193.048 502.569 193.031 503.127 192.876C503.684 192.721 504.195 192.433 504.617 192.037L505.777 190.947Z" fill="#D2F7F5"/>
<path opacity="0.53" d="M534.407 335.277L534.887 335.917C535.058 336.148 535.283 336.335 535.543 336.46C535.802 336.586 536.089 336.646 536.377 336.637H537.177L536.537 337.107C536.304 337.278 536.117 337.503 535.99 337.763C535.863 338.022 535.8 338.308 535.807 338.597V339.397L535.327 338.757C535.155 338.525 534.93 338.338 534.67 338.213C534.411 338.088 534.125 338.027 533.837 338.037H533.037L533.677 337.567C533.908 337.392 534.096 337.165 534.223 336.905C534.349 336.644 534.413 336.357 534.407 336.067V335.277Z" fill="#D2F7F5"/>
<path opacity="0.53" d="M431.157 367.667L432.157 368.936C432.5 369.405 432.953 369.783 433.476 370.035C433.999 370.288 434.576 370.409 435.157 370.387H436.747L435.467 371.327C435.001 371.672 434.625 372.126 434.373 372.648C434.12 373.171 433.998 373.746 434.017 374.327L434.067 375.917L433.067 374.667C432.72 374.201 432.267 373.826 431.745 373.574C431.222 373.321 430.647 373.199 430.067 373.216L428.477 373.267L429.757 372.316C430.222 371.97 430.597 371.517 430.85 370.994C431.102 370.472 431.225 369.896 431.207 369.316L431.157 367.667Z" fill="#D2F7F5"/>
<path d="M417.187 140.737L415.637 141.097C415.074 141.227 414.551 141.492 414.112 141.868C413.673 142.244 413.332 142.72 413.117 143.257L412.527 144.737L412.167 143.187C412.038 142.623 411.774 142.099 411.397 141.66C411.021 141.221 410.544 140.88 410.007 140.667L408.537 140.077L410.087 139.717C410.648 139.586 411.17 139.321 411.607 138.945C412.044 138.569 412.384 138.093 412.597 137.557L413.197 136.077L413.547 137.627C413.681 138.189 413.948 138.712 414.325 139.15C414.703 139.589 415.18 139.93 415.717 140.147L417.187 140.737Z" fill="#CDEED7"/>
<path d="M379.627 236.127L379.297 237.687C379.173 238.252 379.189 238.839 379.344 239.397C379.5 239.955 379.789 240.466 380.187 240.887L381.267 242.047L379.717 241.717C379.152 241.593 378.566 241.609 378.008 241.762C377.451 241.915 376.939 242.202 376.517 242.597L375.357 243.667L375.687 242.117C375.809 241.551 375.792 240.964 375.637 240.407C375.481 239.849 375.193 239.338 374.797 238.917L373.707 237.757L375.267 238.087C375.832 238.205 376.418 238.186 376.975 238.031C377.532 237.877 378.044 237.59 378.467 237.197L379.627 236.127Z" fill="#D2F7F5"/>
<path d="M424.327 312.987L423.987 314.537C423.867 315.102 423.886 315.688 424.041 316.245C424.196 316.802 424.482 317.314 424.877 317.737L425.967 318.897L424.407 318.567C423.843 318.448 423.258 318.467 422.703 318.622C422.148 318.777 421.638 319.063 421.217 319.457L420.067 320.547L420.397 318.987C420.515 318.421 420.496 317.835 420.342 317.278C420.187 316.721 419.9 316.21 419.507 315.787L418.407 314.667L419.967 314.997C420.531 315.12 421.116 315.104 421.673 314.949C422.229 314.794 422.738 314.504 423.157 314.107L424.327 312.987Z" fill="#D2F7F5"/>
<path d="M498.597 405.047L495.727 407.406C494.689 408.267 493.875 409.366 493.352 410.609C492.83 411.852 492.615 413.203 492.727 414.547L493.017 418.257L490.657 415.387C489.801 414.34 488.704 413.516 487.461 412.985C486.218 412.454 484.865 412.231 483.517 412.337L479.807 412.626L482.687 410.267C483.724 409.406 484.539 408.307 485.061 407.064C485.583 405.821 485.798 404.47 485.687 403.126L485.397 399.417L487.757 402.297C488.618 403.334 489.716 404.149 490.959 404.671C492.202 405.193 493.553 405.408 494.897 405.297L498.597 405.047Z" fill="#D2F7F5"/>
<path d="M546.697 263.947L547.007 265.817C547.12 266.497 547.396 267.139 547.81 267.689C548.225 268.239 548.766 268.681 549.387 268.977L551.097 269.787L549.237 270.097C548.558 270.21 547.916 270.486 547.366 270.9C546.816 271.315 546.374 271.856 546.077 272.477L545.267 274.187L544.957 272.317C544.842 271.64 544.566 271 544.152 270.451C543.738 269.903 543.198 269.463 542.577 269.167L540.867 268.357L542.727 268.047C543.403 267.928 544.04 267.647 544.585 267.229C545.13 266.812 545.566 266.269 545.857 265.647L546.697 263.947Z" fill="#D2F7F5"/>
<path opacity="0.26" d="M636.487 325.497C636.241 326.187 636.166 326.927 636.267 327.653C636.368 328.378 636.642 329.069 637.067 329.667C636.377 329.419 635.637 329.342 634.91 329.443C634.184 329.544 633.493 329.82 632.897 330.247C633.145 329.555 633.222 328.813 633.121 328.085C633.02 327.357 632.744 326.665 632.317 326.067C633.006 326.317 633.746 326.396 634.472 326.297C635.199 326.197 635.89 325.923 636.487 325.497Z" fill="#D2F7F5"/>
<path d="M589.206 341.537L613.446 375.607L586.066 344.007C585.865 343.815 585.706 343.584 585.599 343.327C585.492 343.07 585.44 342.794 585.446 342.516C585.452 342.238 585.516 341.964 585.633 341.712C585.751 341.46 585.92 341.235 586.13 341.052C586.339 340.869 586.585 340.732 586.85 340.649C587.116 340.566 587.396 340.54 587.672 340.571C587.948 340.603 588.215 340.692 588.455 340.832C588.695 340.973 588.904 341.162 589.066 341.387C589.119 341.431 589.166 341.482 589.206 341.537Z" fill="#D2F7F5"/>
<path d="M605.595 104.429L647.221 100.472L606.164 108.383C605.898 108.462 605.617 108.484 605.341 108.448C605.066 108.412 604.8 108.319 604.562 108.175C604.325 108.031 604.119 107.839 603.96 107.611C603.801 107.383 603.691 107.124 603.637 106.851C603.583 106.578 603.587 106.297 603.648 106.026C603.709 105.754 603.826 105.499 603.992 105.275C604.157 105.051 604.368 104.865 604.609 104.727C604.851 104.589 605.119 104.504 605.395 104.475C605.46 104.452 605.527 104.436 605.595 104.429Z" fill="#D2F7F5"/>
<path opacity="0.28" d="M445.777 310.027L424.867 341.817L442.947 308.327C443.155 307.941 443.508 307.654 443.928 307.528C444.349 307.403 444.801 307.449 445.187 307.657C445.573 307.865 445.86 308.218 445.986 308.638C446.112 309.059 446.065 309.511 445.857 309.897L445.777 310.027Z" fill="#D2F7F5"/>
<path opacity="0.26" d="M619.807 51.9473L620.137 52.9473C620.255 53.3259 620.463 53.6702 620.744 53.9507C621.024 54.2311 621.369 54.4393 621.747 54.5573L622.747 54.8873L621.747 55.2073C621.369 55.3268 621.026 55.5355 620.746 55.8157C620.465 56.0959 620.257 56.4394 620.137 56.8173L619.807 57.8173L619.477 56.8173C619.358 56.4394 619.149 56.0959 618.869 55.8157C618.589 55.5355 618.245 55.3268 617.867 55.2073L616.867 54.8873L617.867 54.5573C618.246 54.4393 618.59 54.2311 618.871 53.9507C619.151 53.6702 619.359 53.3259 619.477 52.9473L619.807 51.9473Z" fill="#D2F7F5"/>
<circle cx="654.867" cy="212.947" r="36" fill="white"/>
<g style="mix-blend-mode:multiply" opacity="0.42">
<path fill-rule="evenodd" clip-rule="evenodd" d="M654.867 248.947C674.749 248.947 690.867 232.83 690.867 212.947C690.867 204.497 687.955 196.726 683.08 190.584C683.026 190.538 682.971 190.493 682.916 190.447C686.16 198.201 686.696 206.813 684.44 214.905C682.183 222.998 677.264 230.104 670.469 235.087C663.674 240.07 655.395 242.642 646.958 242.392C638.738 242.149 631.368 238.223 624.998 233.05C631.466 242.64 642.43 248.947 654.867 248.947Z" fill="#BDBDBD"/>
</g>
<path d="M642.203 226.657L642.194 226.666L642.184 226.676C642.137 226.724 641.77 227.081 641.32 227.417C641.096 227.584 640.872 227.73 640.674 227.83C640.467 227.934 640.368 227.946 640.361 227.947C640.361 227.947 640.361 227.947 640.361 227.947H640.359C640.342 227.947 640.337 227.947 640.314 227.928C640.274 227.894 640.2 227.808 640.121 227.629C639.959 227.262 639.868 226.714 639.868 226.151V195.743C639.868 194.82 640.732 193.947 641.748 193.947H668.201C669.032 193.947 669.795 194.635 669.868 195.773V226.151C669.868 227 669.753 227.521 669.621 227.792C669.571 227.897 669.531 227.936 669.519 227.946C669.515 227.947 669.51 227.947 669.502 227.947C669.503 227.947 669.503 227.947 669.502 227.947C669.492 227.946 669.428 227.937 669.298 227.877C669.157 227.811 668.987 227.708 668.797 227.571C668.416 227.296 668.038 226.945 667.751 226.663L666.557 225.483L666.545 225.471L666.532 225.459C666.148 225.105 665.654 224.889 665.086 224.889C664.552 224.889 664.01 225.084 663.61 225.489L662.421 226.663L662.418 226.666C662.109 226.973 661.656 227.31 661.178 227.565C660.679 227.832 660.27 227.947 660.03 227.947C659.779 227.947 659.369 227.831 658.876 227.566C658.403 227.312 657.954 226.976 657.642 226.666L657.639 226.663L656.45 225.489C656.065 225.098 655.551 224.889 654.996 224.889C654.462 224.889 653.919 225.084 653.52 225.488L652.33 226.663L652.327 226.666C652.016 226.976 651.567 227.312 651.093 227.566C650.601 227.831 650.191 227.947 649.94 227.947C649.688 227.947 649.279 227.831 648.786 227.566C648.312 227.312 647.863 226.976 647.552 226.666L647.549 226.663L646.354 225.483L646.342 225.471L646.329 225.459C645.945 225.105 645.451 224.889 644.884 224.889C644.351 224.889 643.811 225.082 643.411 225.485L642.203 226.657Z" stroke="#FF7043" stroke-width="2"/>
<path d="M657.238 211.511L657.238 211.511L657.243 211.506C657.91 210.764 658.893 210.344 660.148 210.344C661.49 210.344 662.435 210.833 663.048 211.505C663.676 212.193 664.005 213.128 663.996 214.077L663.996 214.077V214.088C663.996 215.082 663.647 215.992 663.033 216.664L663.033 216.664L663.028 216.67C662.361 217.411 661.378 217.831 660.124 217.831C657.589 217.831 656.276 215.98 656.276 214.088C656.276 213.094 656.624 212.183 657.238 211.511ZM662.858 216.539L662.869 216.528L662.879 216.516C663.453 215.837 663.732 214.986 663.763 214.123L663.764 214.105V214.088C663.764 213.257 663.495 212.365 662.891 211.664C662.267 210.941 661.338 210.487 660.172 210.487C659.13 210.487 658.176 210.872 657.509 211.612L657.507 211.614C656.891 212.301 656.604 213.174 656.604 214.064C656.604 214.894 656.872 215.786 657.477 216.487C658.101 217.21 659.03 217.664 660.196 217.664C661.237 217.664 662.191 217.279 662.858 216.539Z" stroke="#FF7043" stroke-width="2"/>
<path d="M662.074 200.663L648.419 215.954H647.943L661.685 200.675L662.074 200.663Z" stroke="#FF7043" stroke-width="2"/>
<path d="M652.843 205.311L652.843 205.311L652.836 205.318C652.136 206.076 651.143 206.514 649.851 206.514C647.24 206.514 645.907 204.633 645.907 202.698C645.907 201.66 646.277 200.725 646.891 200.051C647.59 199.296 648.605 198.858 649.875 198.858C652.512 198.858 653.838 200.762 653.819 202.664L653.819 202.664V202.674C653.819 203.725 653.464 204.651 652.843 205.311ZM652.585 205.125L652.596 205.114L652.606 205.102C653.157 204.451 653.495 203.593 653.467 202.679C653.463 201.869 653.201 200.99 652.603 200.296C651.98 199.573 651.049 199.121 649.875 199.121C648.712 199.121 647.77 199.538 647.128 200.249C646.503 200.941 646.235 201.832 646.235 202.674C646.235 203.504 646.517 204.394 647.137 205.088C647.775 205.804 648.719 206.25 649.899 206.25C650.959 206.25 651.915 205.868 652.585 205.125Z" stroke="#FF7043" stroke-width="2"/>
<circle cx="544.867" cy="56.9473" r="36" fill="white"/>
<g style="mix-blend-mode:multiply" opacity="0.42">
<path fill-rule="evenodd" clip-rule="evenodd" d="M544.867 92.9473C564.749 92.9473 580.867 76.8295 580.867 56.9473C580.867 48.4967 577.955 40.7262 573.08 34.5843C573.026 34.5385 572.971 34.4928 572.916 34.4473C576.16 42.2008 576.696 50.8126 574.44 58.9052C572.183 66.9979 567.264 74.104 560.469 79.0871C553.674 84.0702 545.395 86.6425 536.958 86.3924C528.738 86.1489 521.368 82.2229 514.998 77.0503C521.466 86.6404 532.43 92.9473 544.867 92.9473Z" fill="#BDBDBD"/>
</g>
<path d="M552.384 51.477C553.629 50.2315 554.563 49.6087 555.498 48.6745C559.546 44.6265 563.594 38.3987 561.103 35.9076C558.611 33.4165 552.695 37.4645 548.647 41.5126C547.713 42.1353 547.09 43.3809 545.845 44.6265L528.407 36.5303C526.538 35.9076 524.67 35.9076 523.424 37.1531L521.868 38.3987L538.371 52.7226C535.257 56.7706 531.521 60.5073 529.964 62.687L527.161 61.1301C525.916 60.5073 524.047 60.5073 523.113 61.7528L522.49 62.3756L529.341 67.6692L534.323 74.5198L534.946 73.897C535.88 72.9629 536.191 71.0945 535.569 69.849L534.323 67.0465C536.503 65.1781 540.24 61.7529 544.288 58.639L558.611 75.1426L559.857 73.897C561.103 72.6515 561.414 70.7831 560.48 68.9148L552.384 51.477Z" fill="#009688"/>
<circle cx="550.867" cy="170.947" r="36" fill="white"/>
<g style="mix-blend-mode:multiply" opacity="0.42">
<path fill-rule="evenodd" clip-rule="evenodd" d="M550.867 206.947C570.749 206.947 586.867 190.83 586.867 170.947C586.867 162.497 583.955 154.726 579.08 148.584C579.025 148.538 578.971 148.493 578.916 148.447C582.159 156.201 582.696 164.813 580.439 172.905C578.183 180.998 573.264 188.104 566.469 193.087C559.674 198.07 551.395 200.642 542.957 200.392C534.738 200.149 527.368 196.223 520.998 191.05C527.465 200.64 538.429 206.947 550.867 206.947Z" fill="#BDBDBD"/>
</g>
<path d="M556.467 174.547L566.6 185.947" stroke="#CC0066" stroke-width="2" stroke-linecap="round"/>
<path d="M541.268 174.547L531.134 185.947" stroke="#CC0066" stroke-width="2" stroke-linecap="round"/>
<path d="M543.801 178.348L538.734 184.681" stroke="#CC0066" stroke-width="2" stroke-linecap="round"/>
<path d="M541.268 182.146H556.468" stroke="#CC0066" stroke-width="2" stroke-linecap="round"/>
<path d="M553.933 178.348L559 184.681" stroke="#CC0066" stroke-width="2" stroke-linecap="round"/>
<mask id="path-108-inside-1" fill="white">
<path fill-rule="evenodd" clip-rule="evenodd" d="M542.201 147.947C538.887 147.947 536.201 150.634 536.201 153.947V173.814C536.201 174.919 537.097 175.814 538.201 175.814H559.535C560.639 175.814 561.535 174.918 561.535 173.814V153.947C561.535 150.634 558.848 147.947 555.535 147.947H542.201ZM542.734 152.48H555.001C556.106 152.48 557.001 153.376 557.001 154.48V161.147H540.734V154.48C540.734 153.376 541.63 152.48 542.734 152.48ZM538.734 154.48C538.734 152.271 540.525 150.48 542.734 150.48H555.001C557.21 150.48 559.001 152.271 559.001 154.48V161.147C559.001 162.252 558.106 163.147 557.001 163.147H540.734C539.63 163.147 538.734 162.252 538.734 161.147V154.48ZM543.801 170.748C543.801 172.147 542.667 173.282 541.268 173.282C539.869 173.282 538.734 172.147 538.734 170.748C538.734 169.349 539.869 168.215 541.268 168.215C542.667 168.215 543.801 169.349 543.801 170.748ZM556.469 173.282C557.868 173.282 559.002 172.147 559.002 170.748C559.002 169.349 557.868 168.215 556.469 168.215C555.07 168.215 553.936 169.349 553.936 170.748C553.936 172.147 555.07 173.282 556.469 173.282Z"/>
</mask>
<path fill-rule="evenodd" clip-rule="evenodd" d="M542.201 147.947C538.887 147.947 536.201 150.634 536.201 153.947V173.814C536.201 174.919 537.097 175.814 538.201 175.814H559.535C560.639 175.814 561.535 174.918 561.535 173.814V153.947C561.535 150.634 558.848 147.947 555.535 147.947H542.201ZM542.734 152.48H555.001C556.106 152.48 557.001 153.376 557.001 154.48V161.147H540.734V154.48C540.734 153.376 541.63 152.48 542.734 152.48ZM538.734 154.48C538.734 152.271 540.525 150.48 542.734 150.48H555.001C557.21 150.48 559.001 152.271 559.001 154.48V161.147C559.001 162.252 558.106 163.147 557.001 163.147H540.734C539.63 163.147 538.734 162.252 538.734 161.147V154.48ZM543.801 170.748C543.801 172.147 542.667 173.282 541.268 173.282C539.869 173.282 538.734 172.147 538.734 170.748C538.734 169.349 539.869 168.215 541.268 168.215C542.667 168.215 543.801 169.349 543.801 170.748ZM556.469 173.282C557.868 173.282 559.002 172.147 559.002 170.748C559.002 169.349 557.868 168.215 556.469 168.215C555.07 168.215 553.936 169.349 553.936 170.748C553.936 172.147 555.07 173.282 556.469 173.282Z" fill="#CC0066"/>
<path d="M557.001 161.147V163.147H559.001V161.147H557.001ZM540.734 161.147H538.734V163.147H540.734V161.147ZM538.201 153.947C538.201 151.738 539.992 149.947 542.201 149.947V145.947C537.783 145.947 534.201 149.529 534.201 153.947H538.201ZM538.201 173.814V153.947H534.201V173.814H538.201ZM538.201 173.814H538.201H534.201C534.201 176.023 535.992 177.814 538.201 177.814V173.814ZM559.535 173.814H538.201V177.814H559.535V173.814ZM559.535 173.814V173.814V177.814C561.744 177.814 563.535 176.023 563.535 173.814H559.535ZM559.535 153.947V173.814H563.535V153.947H559.535ZM555.535 149.947C557.744 149.947 559.535 151.738 559.535 153.947H563.535C563.535 149.529 559.953 145.947 555.535 145.947V149.947ZM542.201 149.947H555.535V145.947H542.201V149.947ZM555.001 150.48H542.734V154.48H555.001V150.48ZM559.001 154.48C559.001 152.271 557.21 150.48 555.001 150.48V154.48V154.48H559.001ZM559.001 161.147V154.48H555.001V161.147H559.001ZM540.734 163.147H557.001V159.147H540.734V163.147ZM538.734 154.48V161.147H542.734V154.48H538.734ZM542.734 150.48C540.525 150.48 538.734 152.271 538.734 154.48H542.734L542.734 154.48V150.48ZM542.734 148.48C539.421 148.48 536.734 151.167 536.734 154.48H540.734C540.734 153.376 541.63 152.48 542.734 152.48V148.48ZM555.001 148.48H542.734V152.48H555.001V148.48ZM561.001 154.48C561.001 151.167 558.315 148.48 555.001 148.48V152.48C556.106 152.48 557.001 153.376 557.001 154.48H561.001ZM561.001 161.147V154.48H557.001V161.147H561.001ZM557.001 165.147C559.21 165.147 561.001 163.356 561.001 161.147H557.001V161.147V165.147ZM540.734 165.147H557.001V161.147H540.734V165.147ZM536.734 161.147C536.734 163.356 538.525 165.147 540.734 165.147V161.147H540.734H536.734ZM536.734 154.48V161.147H540.734V154.48H536.734ZM541.268 175.282C543.771 175.282 545.801 173.252 545.801 170.748H541.801C541.801 171.043 541.562 171.282 541.268 171.282V175.282ZM536.734 170.748C536.734 173.252 538.764 175.282 541.268 175.282V171.282C540.973 171.282 540.734 171.043 540.734 170.748H536.734ZM541.268 166.215C538.764 166.215 536.734 168.244 536.734 170.748H540.734C540.734 170.454 540.973 170.215 541.268 170.215V166.215ZM545.801 170.748C545.801 168.244 543.771 166.215 541.268 166.215V170.215C541.562 170.215 541.801 170.454 541.801 170.748H545.801ZM557.002 170.748C557.002 171.043 556.763 171.282 556.469 171.282V175.282C558.973 175.282 561.002 173.252 561.002 170.748H557.002ZM556.469 170.215C556.763 170.215 557.002 170.454 557.002 170.748H561.002C561.002 168.244 558.973 166.215 556.469 166.215V170.215ZM555.936 170.748C555.936 170.454 556.174 170.215 556.469 170.215V166.215C553.965 166.215 551.936 168.244 551.936 170.748H555.936ZM556.469 171.282C556.174 171.282 555.936 171.043 555.936 170.748H551.936C551.936 173.252 553.965 175.282 556.469 175.282V171.282Z" fill="#CC0066" mask="url(#path-108-inside-1)"/>
<circle cx="667.867" cy="329.947" r="36" fill="#FAFAFC"/>
<g style="mix-blend-mode:multiply" opacity="0.42">
<path fill-rule="evenodd" clip-rule="evenodd" d="M667.867 365.947C687.749 365.947 703.867 349.83 703.867 329.947C703.867 321.497 700.955 313.726 696.08 307.584C696.026 307.538 695.971 307.493 695.916 307.447C699.16 315.201 699.696 323.813 697.44 331.905C695.183 339.998 690.264 347.104 683.469 352.087C676.674 357.07 668.395 359.642 659.958 359.392C651.738 359.149 644.368 355.223 637.998 350.05C644.466 359.64 655.43 365.947 667.867 365.947Z" fill="#BDBDBD"/>
</g>
<path d="M662.267 318.2H655.867C656.578 320.979 658.427 327.996 660.134 333.831C664.401 333.831 669.734 334.874 674.001 330.705C677.414 327.37 684.667 326.537 687.867 326.537C686.445 322.716 683.387 314.448 682.534 311.947C678.267 311.947 672.934 311.947 669.734 315.074C667.174 317.575 663.689 318.2 662.267 318.2Z" stroke="#57C478" stroke-width="2" stroke-linecap="round" stroke-linejoin="round"/>
<line x1="654.33" y1="315.339" x2="663.259" y2="347.485" stroke="#57C478" stroke-width="4" stroke-linecap="round" stroke-linejoin="round"/>
<circle cx="653.867" cy="313.947" r="2" stroke="#57C478" stroke-width="4"/>
<line x1="664.804" y1="317.596" x2="670.804" y2="333.596" stroke="#57C478" stroke-width="2"/>
<line x1="672.786" y1="313.553" x2="678.786" y2="327.553" stroke="#57C478" stroke-width="2"/>
<circle cx="502.867" cy="337.947" r="36" fill="white"/>
<g style="mix-blend-mode:multiply" opacity="0.42">
<path fill-rule="evenodd" clip-rule="evenodd" d="M502.867 373.947C522.749 373.947 538.867 357.83 538.867 337.947C538.867 329.497 535.955 321.726 531.08 315.584C531.026 315.538 530.971 315.493 530.916 315.447C534.16 323.201 534.696 331.813 532.44 339.905C530.183 347.998 525.264 355.104 518.469 360.087C511.674 365.07 503.395 367.642 494.958 367.392C486.738 367.149 479.368 363.223 472.998 358.05C479.466 367.64 490.43 373.947 502.867 373.947Z" fill="#BDBDBD"/>
</g>
<g clip-path="url(#clip1)">
<path d="M489.867 314.947C489.867 314.395 490.315 313.947 490.867 313.947H510.867C511.419 313.947 511.867 314.395 511.867 314.947V353.947H489.867V314.947Z" stroke="#F44336" stroke-width="2"/>
<path d="M504.418 321.616L504.395 321.612C504.361 321.607 504.327 321.601 504.292 321.596C504.025 321.554 503.726 321.506 503.469 321.453C503.322 321.422 503.166 321.385 503.021 321.339C502.902 321.301 502.685 321.225 502.492 321.075M504.418 321.616L502.492 321.075M504.418 321.616C504.976 321.691 505.412 321.754 505.732 321.852C505.731 321.853 505.73 321.855 505.729 321.856C505.522 322.126 505.192 322.443 504.761 322.841L504.761 322.841L504.756 322.845C504.513 323.073 504.257 323.324 504.045 323.558C503.939 323.674 503.835 323.797 503.744 323.918C503.665 324.026 503.553 324.188 503.48 324.378C503.383 324.627 503.38 324.88 503.382 325.013C503.384 325.177 503.401 325.349 503.42 325.507C503.449 325.741 503.493 326.007 503.531 326.237C503.543 326.311 503.555 326.381 503.565 326.445C503.568 326.46 503.571 326.476 503.574 326.491C503.694 327.064 503.777 327.506 503.786 327.841C503.744 327.823 503.697 327.802 503.645 327.777C503.394 327.658 503.123 327.508 502.821 327.341C502.769 327.311 502.716 327.282 502.662 327.252C502.41 327.109 502.107 326.939 501.835 326.805C501.698 326.737 501.55 326.669 501.406 326.616C501.292 326.573 501.069 326.496 500.821 326.496C500.572 326.496 500.349 326.573 500.235 326.616C500.091 326.669 499.943 326.737 499.806 326.805C499.534 326.939 499.232 327.109 498.979 327.252C498.622 327.45 498.313 327.62 498.035 327.743C497.954 327.779 497.884 327.807 497.825 327.829C497.825 327.822 497.825 327.815 497.825 327.807C497.837 327.518 497.895 327.178 497.971 326.736C497.988 326.639 498.006 326.537 498.024 326.429C498.092 326.123 498.167 325.774 498.212 325.463C498.236 325.304 498.255 325.131 498.258 324.965C498.261 324.84 498.258 324.629 498.189 324.409C498.124 324.169 497.997 323.982 497.93 323.888C497.835 323.754 497.723 323.624 497.619 323.509C497.482 323.358 497.311 323.183 497.158 323.027C497.09 322.958 497.025 322.892 496.969 322.834C496.962 322.827 496.955 322.819 496.948 322.812C496.532 322.407 496.212 322.091 496.006 321.816C495.999 321.807 495.993 321.799 495.987 321.79C495.987 321.79 495.987 321.79 495.987 321.79C496.272 321.707 496.636 321.658 497.119 321.594C497.182 321.585 497.248 321.576 497.316 321.567C497.328 321.566 497.34 321.564 497.352 321.562C497.471 321.541 497.6 321.523 497.745 321.502L497.76 321.5C497.905 321.479 498.068 321.455 498.222 321.427C498.373 321.4 498.549 321.363 498.716 321.308C498.843 321.266 499.085 321.177 499.295 320.983C499.442 320.856 499.551 320.706 499.614 320.615C499.699 320.491 499.782 320.352 499.858 320.214C500.01 319.941 500.162 319.625 500.287 319.341C500.299 319.315 500.31 319.289 500.322 319.264C500.538 318.794 500.707 318.424 500.876 318.151C501.053 318.429 501.235 318.827 501.436 319.313C501.443 319.331 501.451 319.348 501.459 319.365M504.418 321.616L501.459 319.365M502.492 321.075C502.303 320.928 502.175 320.738 502.109 320.635M502.492 321.075L502.109 320.635M501.459 319.365C501.494 319.439 501.532 319.517 501.57 319.597M501.459 319.365L501.57 319.597M501.57 319.597C501.672 319.81 501.781 320.039 501.88 320.231M501.57 319.597L501.88 320.231M501.88 320.231C501.95 320.367 502.028 320.509 502.109 320.635M501.88 320.231L502.109 320.635M505.873 321.625C505.873 321.625 505.873 321.627 505.871 321.631C505.872 321.627 505.873 321.625 505.873 321.625ZM503.766 328.111C503.766 328.111 503.767 328.109 503.768 328.106C503.767 328.109 503.766 328.111 503.766 328.111ZM497.838 328.076C497.84 328.079 497.84 328.081 497.84 328.081C497.84 328.081 497.839 328.079 497.838 328.076ZM495.772 321.873C495.767 321.877 495.764 321.879 495.764 321.879C495.763 321.879 495.766 321.877 495.772 321.873Z" stroke="#F44336" stroke-width="2" stroke-linecap="round" stroke-linejoin="round"/>
<line x1="479.867" y1="353.947" x2="521.867" y2="353.947" stroke="#F44336" stroke-width="2" stroke-linecap="round"/>
<path d="M483.867 332.947C483.867 332.395 484.315 331.947 484.867 331.947H489.867V351.947H483.867V332.947Z" stroke="#F44336" stroke-width="2"/>
<path d="M511.867 331.947H516.867C517.419 331.947 517.867 332.395 517.867 332.947V351.947H511.867V331.947Z" stroke="#F44336" stroke-width="2"/>
<rect x="493.867" y="333.947" width="4" height="4" stroke="#F44336" stroke-width="2"/>
<rect x="503.867" y="333.947" width="4" height="4" stroke="#F44336" stroke-width="2"/>
<rect x="493.867" y="343.947" width="4" height="4" stroke="#F44336" stroke-width="2"/>
<rect x="503.867" y="343.947" width="4" height="4" stroke="#F44336" stroke-width="2"/>
</g>
<circle cx="438.867" cy="205.947" r="36" fill="white"/>
<g style="mix-blend-mode:multiply" opacity="0.42">
<path fill-rule="evenodd" clip-rule="evenodd" d="M438.867 241.942C458.749 241.942 474.867 225.825 474.867 205.942C474.867 197.492 471.955 189.721 467.08 183.579C467.026 183.534 466.971 183.488 466.916 183.442C470.16 191.196 470.696 199.808 468.44 207.9C466.183 215.993 461.264 223.099 454.469 228.082C447.674 233.065 439.395 235.638 430.958 235.388C422.738 235.144 415.368 231.218 408.998 226.045C415.466 235.635 426.43 241.942 438.867 241.942Z" fill="#BDBDBD"/>
</g>
<path d="M417.867 192.947V186.947C417.867 185.614 418.667 182.947 421.867 182.947H427.867" stroke="#5E35B1" stroke-width="2" stroke-linecap="round"/>
<path d="M457.867 192.947V186.947C457.867 185.614 457.067 182.947 453.867 182.947H447.867" stroke="#5E35B1" stroke-width="2" stroke-linecap="round"/>
<path d="M417.867 212.947V218.947C417.867 220.281 418.667 222.947 421.867 222.947H427.867" stroke="#5E35B1" stroke-width="2" stroke-linecap="round"/>
<path d="M457.867 212.947V218.947C457.867 220.281 457.067 222.947 453.867 222.947H447.867" stroke="#5E35B1" stroke-width="2" stroke-linecap="round"/>
<path d="M448.592 198.844C447.073 199.76 446.194 201.719 447.152 203.565C447.882 205.247 449.715 206.069 451.438 205.623L452.487 208.121C452.605 208.403 452.465 208.796 452.123 208.94L431.198 217.726C430.856 217.869 430.477 217.694 430.358 217.412L429.253 214.778C430.791 213.853 431.486 211.945 430.768 210.235C430.05 208.524 428.201 207.685 426.463 208.135L425.414 205.637C425.296 205.354 425.436 204.961 425.779 204.817L446.703 196.032C447.046 195.888 447.424 196.063 447.543 196.346L448.592 198.844Z" stroke="#5E35B1" stroke-width="2" stroke-linecap="round" stroke-linejoin="round"/>
<path d="M438.126 190.053C438.201 191.223 438.808 192.378 440.088 193.011C440.208 193.077 440.329 193.136 440.452 193.187L434.78 195.768L438.126 190.053Z" stroke="#5E35B1" stroke-width="4" stroke-linecap="round" stroke-linejoin="round"/>
<path d="M439.867 199.947L444.867 210.947" stroke="#5E35B1" stroke-width="2" stroke-linecap="round"/>
<path opacity="0.28" d="M446.33 165.91L437 143L448.29 165C448.423 165.255 448.449 165.551 448.362 165.825C448.276 166.099 448.085 166.327 447.83 166.46C447.575 166.593 447.279 166.619 447.005 166.532C446.731 166.446 446.503 166.255 446.37 166L446.33 165.91Z" fill="#D2F7F5"/>
<path opacity="0.53" d="M500.79 234L501.3 235.14C501.486 235.555 501.769 235.92 502.126 236.202C502.483 236.484 502.903 236.675 503.35 236.76L504.58 237L503.43 237.51C503.021 237.692 502.661 237.968 502.38 238.315C502.098 238.663 501.903 239.072 501.81 239.51L501.58 240.74L501.07 239.6C500.884 239.185 500.601 238.82 500.244 238.538C499.887 238.256 499.467 238.065 499.02 237.98L497.79 237.75L498.93 237.24C499.34 237.06 499.702 236.785 499.983 236.437C500.265 236.089 500.46 235.679 500.55 235.24L500.79 234Z" fill="#D2F7F5"/>
<path opacity="0.53" d="M571 245L571.51 246.14C571.696 246.555 571.979 246.92 572.336 247.202C572.693 247.484 573.113 247.675 573.56 247.76L574.79 248L573.64 248.51C573.231 248.692 572.871 248.968 572.589 249.315C572.308 249.663 572.113 250.072 572.02 250.51L571.79 251.74L571.28 250.6C571.094 250.185 570.811 249.82 570.454 249.538C570.097 249.256 569.677 249.065 569.23 248.98L568 248.75L569.14 248.24C569.55 248.06 569.912 247.785 570.193 247.437C570.475 247.089 570.67 246.679 570.76 246.24L571 245Z" fill="#D2F7F5"/>
</g>
<defs>
<clipPath id="clip0">
<rect width="751" height="443" fill="white"/>
</clipPath>
<clipPath id="clip1">
<rect width="48" height="48" fill="white" transform="translate(476.867 306.947)"/>
</clipPath>
</defs>
</svg>
