<svg width="140" height="117" viewBox="0 0 140 117" fill="none" xmlns="http://www.w3.org/2000/svg">
<path d="M42.7588 13.8098C50.8841 8.55675 60.5715 5.50671 70.9726 5.50671C99.6763 5.50671 122.945 28.7356 122.945 57.39C122.945 57.8857 122.938 58.3799 122.924 58.8723M28.3155 27.7424C22.4435 36.1462 18.9999 46.3666 18.9999 57.39C18.9999 86.0443 42.2688 109.273 70.9726 109.273C92.8548 109.273 111.579 95.7731 119.242 76.6609" stroke="#4FC3F7" stroke-width="1.4" stroke-linecap="round"/>
<path fill-rule="evenodd" clip-rule="evenodd" d="M25.703 92.1849C25.703 91.7983 25.3896 91.4849 25.003 91.4849C24.6164 91.4849 24.303 91.7983 24.303 92.1849V95.1672H21.185C20.7984 95.1672 20.485 95.4806 20.485 95.8672C20.485 96.2538 20.7984 96.5672 21.185 96.5672H24.303V99.6791C24.303 100.066 24.6164 100.379 25.003 100.379C25.3896 100.379 25.703 100.066 25.703 99.6791V96.5672H28.6946C29.0812 96.5672 29.3946 96.2538 29.3946 95.8672C29.3946 95.4806 29.0812 95.1672 28.6946 95.1672H25.703V92.1849Z" fill="#FF6A39"/>
<path fill-rule="evenodd" clip-rule="evenodd" d="M77.6758 18.0657C77.6758 17.6791 77.3624 17.3657 76.9758 17.3657C76.5892 17.3657 76.2758 17.6791 76.2758 18.0657V21.0482H73.1573C72.7707 21.0482 72.4573 21.3616 72.4573 21.7482C72.4573 22.1348 72.7707 22.4482 73.1573 22.4482H76.2758V25.56C76.2758 25.9466 76.5892 26.26 76.9758 26.26C77.3624 26.26 77.6758 25.9466 77.6758 25.56V22.4482H80.6669C81.0535 22.4482 81.3669 22.1348 81.3669 21.7482C81.3669 21.3616 81.0535 21.0482 80.6669 21.0482H77.6758V18.0657Z" fill="#FF6A39"/>
<path fill-rule="evenodd" clip-rule="evenodd" d="M91.0402 81.8083C91.0402 81.4217 90.7268 81.1083 90.3402 81.1083C89.9536 81.1083 89.6402 81.4217 89.6402 81.8083V84.7905H86.5221C86.1355 84.7905 85.8221 85.1039 85.8221 85.4905C85.8221 85.8771 86.1355 86.1905 86.5221 86.1905H89.6402V89.3025C89.6402 89.6891 89.9536 90.0025 90.3402 90.0025C90.7268 90.0025 91.0402 89.6891 91.0402 89.3025V86.1905H94.0317C94.4183 86.1905 94.7317 85.8771 94.7317 85.4905C94.7317 85.1039 94.4183 84.7905 94.0317 84.7905H91.0402V81.8083Z" fill="#FF6A39"/>
<path d="M37.6041 53.684C37.6041 55.343 36.2565 56.6899 34.5917 56.6899C32.9269 56.6899 31.5794 55.343 31.5794 53.684C31.5794 52.025 32.9269 50.678 34.5917 50.678C36.2565 50.678 37.6041 52.025 37.6041 53.684Z" stroke="#CFFFFC" stroke-width="1.4"/>
<path d="M126.7 67.0256C126.7 70.322 124.023 72.9963 120.718 72.9963C117.413 72.9963 114.736 70.322 114.736 67.0256C114.736 63.7292 117.413 61.0549 120.718 61.0549C124.023 61.0549 126.7 63.7292 126.7 67.0256Z" stroke="#FF6A39" stroke-width="1.4"/>
<path d="M39.0891 18.1071C39.0891 21.4035 36.4119 24.0778 33.1069 24.0778C29.8019 24.0778 27.1247 21.4035 27.1247 18.1071C27.1247 14.8107 29.8019 12.1364 33.1069 12.1364C36.4119 12.1364 39.0891 14.8107 39.0891 18.1071Z" stroke="#FF6A39" stroke-width="1.4"/>
<path d="M65.8935 76.0698L53.6032 58.2238C53.4931 58.064 53.5203 57.8471 53.6665 57.7194C53.8381 57.5695 54.1019 57.6022 54.2317 57.7894L60.857 67.3427C63.9264 71.7687 70.5274 71.5946 73.3592 67.013L89.2 41.3842C89.2932 41.2334 89.4579 41.1416 89.6352 41.1416C90.0386 41.1416 90.2833 41.5867 90.0672 41.9273L68.4231 76.0434C68.2691 76.2862 68.0015 76.4333 67.714 76.4333H66.5851C66.3088 76.4333 66.0502 76.2974 65.8935 76.0698Z" stroke="#4FC3F7" stroke-width="6.636" stroke-linecap="round" stroke-linejoin="round"/>
</svg>
